<svg width="24" height="25" viewBox="0 0 24 25" fill="none" xmlns="http://www.w3.org/2000/svg">
    <rect y="0.5" width="24" height="24" rx="12" fill="#D4FAE6" />
    <path
        d="M15.1985 16.3134C14.9315 16.0254 14.582 15.6504 14.276 15.3264C13.682 14.7009 12.956 14.2329 12.956 14.2329L11.7485 15.5289C11.7485 15.5289 12.218 16.3929 12.8165 16.9074C13.109 17.1594 13.475 17.4159 13.7735 17.6139C13.7285 17.7624 13.6835 17.9559 13.664 18.1869C13.607 18.9039 13.718 19.8489 13.7225 19.9539C13.7405 20.5029 13.7465 20.9094 13.7465 20.9094L14.6975 20.9064L15.4895 17.3934C15.5765 17.0079 15.4685 16.6029 15.1985 16.3134Z"
        fill="url(#paint0_linear_169_13080)" />
    <path
        d="M10.4043 14.2329C10.4043 14.2329 9.67826 14.7009 9.08576 15.3279C8.77976 15.6519 8.43026 16.0269 8.16326 16.3149C7.89326 16.6044 7.78526 17.0094 7.87226 17.3949L8.66426 20.9079L9.61526 20.9109C9.61526 20.9109 9.62126 20.5044 9.63926 19.9554C9.64226 19.8504 9.75476 18.9054 9.69776 18.1884C9.67976 17.9574 9.63326 17.7639 9.58826 17.6154C9.88676 17.4174 10.2528 17.1609 10.5453 16.9089C11.1438 16.3944 11.6133 15.5304 11.6133 15.5304L10.4043 14.2329Z"
        fill="url(#paint1_linear_169_13080)" />
    <path d="M8.42383 19.954L8.66533 20.9065L9.61633 20.9095L9.63733 19.954H8.42383Z"
        fill="#E0E0E0" />
    <path
        d="M9.94348 21.2844C9.94198 20.9964 9.69448 20.6694 9.69448 20.6694H8.53198L7.63498 20.9859C7.40398 21.0774 7.25098 21.2994 7.25098 21.5484V21.7404C7.25098 21.8244 7.31848 21.8934 7.40248 21.8934L9.77098 21.8859C9.86698 21.8859 9.94498 21.8079 9.94498 21.7104L9.94348 21.2844Z"
        fill="#4568AD" />
    <path d="M13.7222 19.954L13.7477 20.9095L14.6972 20.9065L14.9372 19.954H13.7222Z"
        fill="#E0E0E0" />
    <path
        d="M15.726 20.9859L14.8305 20.6694H13.668C13.668 20.6694 13.419 20.9964 13.419 21.2859L13.4175 21.7119C13.4175 21.8079 13.4955 21.8859 13.5915 21.8874L15.9585 21.8934C16.0425 21.8934 16.11 21.8259 16.11 21.7404V21.5484C16.11 21.2994 15.957 21.0774 15.726 20.9859Z"
        fill="#4568AD" />
    <path
        d="M13.3097 9.45993C13.2512 9.35493 13.3262 9.24693 13.4507 9.11493C13.6502 8.90493 13.8677 8.41593 13.6667 7.91943C13.6682 7.91643 13.6277 7.83243 13.6277 7.83093L13.5437 7.82643C13.5167 7.82193 12.6032 7.82043 11.6897 7.82043C10.7762 7.82043 9.8627 7.82193 9.8357 7.82643C9.8357 7.82643 9.7127 7.91643 9.7142 7.91943C9.5117 8.41593 9.7292 8.90343 9.9302 9.11493C10.0562 9.24693 10.1297 9.35493 10.0712 9.45993C10.0157 9.56193 9.8477 9.57693 9.8477 9.57693C9.8477 9.57693 9.8867 9.68193 9.9797 9.73893C10.0652 9.79143 10.1717 9.80343 10.2437 9.80493C10.2437 9.80493 10.5287 10.1994 11.2742 10.1994H11.6897H12.1052C12.8507 10.1994 13.1357 9.80493 13.1357 9.80493C13.2092 9.80343 13.3142 9.79143 13.3997 9.73893C13.4927 9.68193 13.5317 9.57693 13.5317 9.57693C13.5317 9.57693 13.3652 9.56343 13.3097 9.45993Z"
        fill="#543930" />
    <path
        d="M11.6899 10.1995V9.76149L13.0159 9.65649L13.1359 9.80499C13.1359 9.80499 12.8509 10.1995 12.1054 10.1995H11.6899Z"
        fill="url(#paint2_radial_169_13080)" />
    <path
        d="M13.1328 9.61444C12.9348 9.31294 13.3743 9.20044 13.3743 9.20044C13.2978 9.29494 13.2633 9.37894 13.3083 9.45994C13.3638 9.56194 13.5318 9.57694 13.5318 9.57694C13.5318 9.57694 13.3038 9.77944 13.1328 9.61444Z"
        fill="url(#paint3_radial_169_13080)" />
    <path
        d="M13.6665 7.92099C13.863 8.40099 13.656 8.89599 13.4625 9.10449C13.4355 9.13299 13.323 9.24399 13.2975 9.33249C13.2975 9.33249 12.855 8.71449 12.723 8.35299C12.696 8.27949 12.672 8.20449 12.669 8.12649C12.666 8.06799 12.675 7.99899 12.7095 7.94949C12.7515 7.88799 13.6455 7.87149 13.6455 7.87149C13.644 7.86999 13.6665 7.92099 13.6665 7.92099Z"
        fill="url(#paint4_radial_169_13080)" />
    <path
        d="M9.7141 7.92087C9.5176 8.40087 9.7246 8.89587 9.9181 9.10437C9.9451 9.13287 10.0576 9.24387 10.0831 9.33237C10.0831 9.33237 10.5256 8.71437 10.6576 8.35287C10.6846 8.27937 10.7086 8.20437 10.7116 8.12637C10.7146 8.06787 10.7056 7.99887 10.6711 7.94937C10.6291 7.88787 10.5811 7.90437 10.5121 7.90437C10.3786 7.90437 9.7936 7.86987 9.7486 7.86987C9.7501 7.86987 9.7141 7.92087 9.7141 7.92087Z"
        fill="url(#paint5_radial_169_13080)" />
    <path
        d="M11.6911 10.1995V9.76149L10.3651 9.65649L10.2451 9.80499C10.2451 9.80499 10.5301 10.1995 11.2756 10.1995H11.6911Z"
        fill="url(#paint6_radial_169_13080)" />
    <path
        d="M10.2496 9.61444C10.4491 9.31294 10.0081 9.20044 10.0081 9.20044C10.0846 9.29494 10.1191 9.37894 10.0741 9.45994C10.0186 9.56194 9.85059 9.57694 9.85059 9.57694C9.85059 9.57694 10.0771 9.77944 10.2496 9.61444Z"
        fill="url(#paint7_radial_169_13080)" />
    <path
        d="M16.5198 6.76147L15.8388 6.41797C15.2943 6.95197 15.0363 7.40947 14.7933 8.20597C14.2788 8.45047 13.8348 8.89897 13.5468 9.36247C13.2408 9.78397 13.0488 10.018 12.8283 10.4365C12.6618 10.7545 12.7818 11.1085 13.0833 11.329C13.2258 11.434 13.3413 11.479 13.4538 11.479C13.5798 11.479 13.6998 11.4205 13.8468 11.3215C14.1573 11.1445 14.5788 10.6765 14.8488 10.3285L14.8413 10.324C15.1848 9.89647 15.5313 9.29347 15.7038 8.72347C16.1868 8.21947 16.5198 7.55797 16.5198 6.76147Z"
        fill="url(#paint8_linear_169_13080)" />
    <path
        d="M10.5333 10.438C10.3128 10.0195 10.1208 9.78547 9.8148 9.36397C9.5268 8.90047 9.0828 8.45197 8.5683 8.20747C8.3238 7.40797 8.0658 6.95197 7.5213 6.41797L6.8418 6.76297C6.8418 7.55947 7.1748 8.21947 7.6578 8.72497C7.8303 9.29347 8.1753 9.89797 8.5203 10.3255L8.5128 10.33C8.7828 10.678 9.2043 11.146 9.5148 11.323C9.6618 11.422 9.7818 11.4805 9.9078 11.4805C10.0203 11.4805 10.1358 11.434 10.2783 11.3305C10.5783 11.11 10.6998 10.7545 10.5333 10.438Z"
        fill="url(#paint9_linear_169_13080)" />
    <path
        d="M13.5467 9.36246C13.2782 9.73146 13.0982 9.95796 12.9092 10.2895C12.7247 10.2415 12.5162 10.2145 12.2852 10.2145H11.0597C10.8332 10.2145 10.6307 10.2415 10.4507 10.288C10.2617 9.95646 10.0817 9.72996 9.8132 9.36096L8.5127 10.3285C8.7827 10.6765 9.3647 11.3215 9.3647 11.3215C9.4892 11.9305 10.2062 14.3515 10.2062 14.3515H13.2467L14.0222 11.3095C14.0222 11.3095 14.5847 10.6675 14.8487 10.33L13.5467 9.36246Z"
        fill="url(#paint10_linear_169_13080)" />
    <path
        d="M11.1606 10.3194C11.1606 10.5684 11.3721 10.7709 11.6331 10.7709H11.7276C11.9886 10.7709 12.2001 10.5684 12.2001 10.3194V9.76892H11.1606V10.3194Z"
        fill="#E59600" />
    <path
        d="M10.4113 9.08344C10.1788 9.08344 9.98828 8.87944 9.98828 8.62894C9.98828 8.37844 10.1773 8.17444 10.4113 8.17444H12.9493C13.1818 8.17444 13.3723 8.37844 13.3723 8.62894C13.3723 8.87944 13.1833 9.08344 12.9493 9.08344H10.4113Z"
        fill="#E59600" />
    <path
        d="M11.6803 6.28589C10.8763 6.28589 10.1323 7.14539 10.1323 8.38139C10.1323 9.61139 10.8988 10.2189 11.6803 10.2189C12.4618 10.2189 13.2283 9.61139 13.2283 8.38139C13.2283 7.14539 12.4843 6.28589 11.6803 6.28589Z"
        fill="#FFCA28" />
    <path
        d="M11.859 8.91698C11.8545 8.91548 11.8485 8.91398 11.844 8.91248H11.5155C11.511 8.91248 11.505 8.91398 11.5005 8.91698C11.4705 8.92898 11.454 8.96048 11.469 8.99348C11.4825 9.02648 11.5485 9.11798 11.6805 9.11798C11.8125 9.11798 11.877 9.02648 11.892 8.99348C11.9055 8.96048 11.889 8.92898 11.859 8.91698Z"
        fill="#E59600" />
    <path
        d="M12.0708 9.2889C11.9223 9.3774 11.4378 9.3774 11.2908 9.2889C11.2053 9.2379 11.1183 9.3159 11.1543 9.3924C11.1888 9.4689 11.4543 9.6444 11.6823 9.6444C11.9103 9.6444 12.1728 9.4689 12.2073 9.3924C12.2418 9.3159 12.1563 9.2379 12.0708 9.2889Z"
        fill="#795548" />
    <path
        d="M10.9276 8.72044C11.0519 8.72044 11.1526 8.61568 11.1526 8.48644C11.1526 8.35721 11.0519 8.25244 10.9276 8.25244C10.8034 8.25244 10.7026 8.35721 10.7026 8.48644C10.7026 8.61568 10.8034 8.72044 10.9276 8.72044Z"
        fill="#404040" />
    <path
        d="M12.4335 8.72044C12.5578 8.72044 12.6585 8.61568 12.6585 8.48644C12.6585 8.35721 12.5578 8.25244 12.4335 8.25244C12.3092 8.25244 12.2085 8.35721 12.2085 8.48644C12.2085 8.61568 12.3092 8.72044 12.4335 8.72044Z"
        fill="#404040" />
    <path
        d="M11.2622 8.0665C11.2187 8.0095 11.1197 7.927 10.9277 7.927C10.7342 7.927 10.6352 8.0095 10.5932 8.0665C10.5737 8.092 10.5797 8.1205 10.5917 8.1385C10.6037 8.155 10.6397 8.17 10.6802 8.1565C10.7207 8.143 10.7972 8.1025 10.9277 8.101C11.0582 8.1025 11.1362 8.1415 11.1752 8.1565C11.2157 8.17 11.2517 8.155 11.2637 8.1385C11.2772 8.1205 11.2817 8.092 11.2622 8.0665Z"
        fill="#6D4C41" />
    <path
        d="M12.768 8.0665C12.7245 8.0095 12.6255 7.927 12.4335 7.927C12.24 7.927 12.141 8.0095 12.099 8.0665C12.0795 8.092 12.0855 8.1205 12.0975 8.1385C12.1095 8.155 12.1455 8.17 12.186 8.1565C12.2265 8.143 12.303 8.1025 12.4335 8.101C12.564 8.1025 12.642 8.1415 12.681 8.1565C12.7215 8.17 12.7575 8.155 12.7695 8.1385C12.783 8.1205 12.7875 8.092 12.768 8.0665Z"
        fill="#6D4C41" />
    <path
        d="M13.5495 6.92192C13.437 6.75092 13.182 6.52142 12.9555 6.50642C12.9195 6.28742 12.684 6.10142 12.4575 6.03092C11.844 5.83592 11.445 6.05492 11.229 6.17192C11.184 6.19592 10.896 6.35642 10.695 6.24092C10.569 6.16892 10.5705 5.97542 10.5705 5.97542C10.5705 5.97542 10.1745 6.12542 10.3095 6.54542C10.1745 6.55142 9.99601 6.60842 9.90151 6.79892C9.78901 7.02542 9.82951 7.21592 9.86101 7.30742C9.74401 7.40642 9.59701 7.61792 9.69751 7.89242C9.77401 8.09942 10.077 8.19392 10.077 8.19392C10.056 8.56592 10.125 8.79392 10.161 8.88692C10.167 8.90342 10.191 8.90192 10.194 8.88542C10.2405 8.70092 10.3965 8.06042 10.3815 7.94792C10.3815 7.94792 10.908 7.84292 11.409 7.47392C11.511 7.39892 11.622 7.33442 11.739 7.28792C12.369 7.03742 12.501 7.46492 12.501 7.46492C12.501 7.46492 12.9375 7.38092 13.0695 7.98842C13.119 8.21642 13.1535 8.57942 13.1805 8.83442C13.182 8.85242 13.2075 8.85692 13.2135 8.83892C13.257 8.73842 13.3455 8.53742 13.3665 8.33342C13.374 8.26142 13.5675 8.16692 13.6515 7.85792C13.7685 7.44092 13.6305 7.04492 13.5495 6.92192Z"
        fill="#543930" />
    <path
        d="M13.371 8.33038C13.3785 8.25838 13.572 8.16388 13.656 7.85488C13.665 7.82188 13.6725 7.78888 13.6785 7.75438C13.746 7.37938 13.6245 7.03438 13.5495 6.92038C13.4445 6.76138 13.2195 6.55438 13.0065 6.51088C12.9885 6.50788 12.9705 6.50638 12.9525 6.50488C12.9525 6.50488 12.9675 6.60388 12.927 6.68338C12.8745 6.78688 12.7695 6.81088 12.7695 6.81088C13.3245 7.36888 13.2855 7.83388 13.371 8.33038Z"
        fill="url(#paint11_radial_169_13080)" />
    <path
        d="M11.3641 6.09988C11.3131 6.12388 11.2681 6.14938 11.2291 6.17038C11.1841 6.19438 10.8961 6.35488 10.6951 6.23938C10.5706 6.16888 10.5706 5.97988 10.5706 5.97388C10.5136 6.04738 10.3411 6.56638 10.8451 6.60088C11.0626 6.61588 11.1976 6.42538 11.2771 6.26488C11.3056 6.20788 11.3521 6.12238 11.3641 6.09988Z"
        fill="url(#paint12_radial_169_13080)" />
    <path
        d="M12.393 6.00991C12.732 6.10141 12.8985 6.27391 12.954 6.50491C12.9705 6.57241 12.99 7.20391 11.784 6.48691C11.3355 6.21991 11.4585 6.05191 11.511 6.03391C11.715 5.96041 12.0135 5.90791 12.393 6.00991Z"
        fill="url(#paint13_radial_169_13080)" />
    <path
        d="M10.5691 5.97393C10.5676 5.97393 10.5676 5.97393 10.5661 5.97543C10.5226 5.99343 10.1836 6.15093 10.3096 6.54393L10.6711 6.60243C10.3531 6.27843 10.5706 5.97243 10.5691 5.97393C10.5706 5.97393 10.5706 5.97243 10.5691 5.97393Z"
        fill="url(#paint14_radial_169_13080)" />
    <path
        d="M10.5343 6.57995L10.3108 6.54395C10.3018 6.54395 10.2718 6.54695 10.2568 6.54845C10.1308 6.56645 9.98378 6.63095 9.90278 6.79745C9.81728 6.97595 9.81878 7.13045 9.84278 7.23245C9.84878 7.26695 9.86378 7.30595 9.86378 7.30595C9.86378 7.30595 9.97478 7.20095 10.2373 7.19495L10.5343 6.57995Z"
        fill="url(#paint15_radial_169_13080)" />
    <path
        d="M9.85242 7.31498C9.74292 7.41248 9.59442 7.62998 9.70392 7.89998C9.78642 8.10398 10.0789 8.19248 10.0789 8.19248C10.0789 8.19398 10.1374 8.21048 10.1674 8.21048L10.2364 7.19348C10.0954 7.19348 9.96042 7.23548 9.87342 7.29548C9.87492 7.29848 9.85242 7.31348 9.85242 7.31498Z"
        fill="url(#paint16_radial_169_13080)" />
    <path
        d="M8.11959 5.86738C7.98459 5.78788 7.34409 5.68738 6.90159 5.68738C6.65859 5.68738 6.47709 5.71888 6.47709 5.80138L6.47559 6.31588C6.47409 6.83338 6.81159 7.25638 7.36959 7.25788H7.37109C8.38209 7.25788 8.46159 6.06688 8.11959 5.86738Z"
        fill="url(#paint17_radial_169_13080)" />
    <path
        d="M8.0834 6.41647C8.0774 6.43597 8.0249 6.45547 7.9679 6.47047H7.9664C7.9004 6.48697 7.8224 6.51997 7.6769 6.56047C7.4744 6.61747 7.4579 6.88897 7.4579 6.88897C7.4204 6.74797 7.5164 6.50047 7.6499 6.44347V6.44197C7.7129 6.41197 7.7834 6.39547 7.8584 6.38347C7.8704 6.38197 7.9004 6.38047 7.9379 6.38197H7.9394C8.0069 6.38347 8.0909 6.39247 8.0834 6.41647Z"
        fill="#EDA600" />
    <path
        d="M20.6807 6.06848C20.6807 6.27548 20.5712 6.44348 20.4347 6.44348H2.92666C2.79166 6.44348 2.68066 6.27548 2.68066 6.06848C2.68066 5.86148 2.79166 5.69348 2.92666 5.69348H20.4332C20.5697 5.69348 20.6807 5.86148 20.6807 6.06848Z"
        fill="url(#paint18_linear_169_13080)" />
    <path
        d="M5.21885 8.24193C5.71535 8.24193 6.11885 7.83843 6.11885 7.34193V4.81443C6.11885 4.31793 5.71535 3.91443 5.21885 3.91443C4.72235 3.91443 4.31885 4.31793 4.31885 4.81443V7.34193C4.31885 7.83843 4.72085 8.24193 5.21885 8.24193Z"
        fill="url(#paint19_radial_169_13080)" />
    <path
        d="M18.1427 8.24193C17.6462 8.24193 17.2427 7.83843 17.2427 7.34193V4.81443C17.2427 4.31793 17.6462 3.91443 18.1427 3.91443C18.6392 3.91443 19.0427 4.31793 19.0427 4.81443V7.34193C19.0427 7.83843 18.6407 8.24193 18.1427 8.24193Z"
        fill="url(#paint20_radial_169_13080)" />
    <path
        d="M3.58047 7.37641C3.91197 7.37641 4.18047 7.10791 4.18047 6.77641V5.37991C4.18047 5.04841 3.91197 4.77991 3.58047 4.77991C3.24897 4.77991 2.98047 5.04841 2.98047 5.37991V6.77641C2.98047 7.10791 3.24897 7.37641 3.58047 7.37641Z"
        fill="url(#paint21_radial_169_13080)" />
    <path
        d="M19.7807 7.37641C19.4492 7.37641 19.1807 7.10791 19.1807 6.77641V5.37991C19.1807 5.04841 19.4492 4.77991 19.7807 4.77991C20.1122 4.77991 20.3807 5.04841 20.3807 5.37991V6.77641C20.3807 7.10791 20.1122 7.37641 19.7807 7.37641Z"
        fill="url(#paint22_radial_169_13080)" />
    <path d="M7.87253 6.44348H6.47303L6.35303 5.69348H7.87253V6.44348Z" fill="#646464" />
    <path
        d="M8.26333 5.54943L8.21983 5.78193L8.21083 5.83293L8.18983 5.94543L8.17783 6.01143C8.15233 6.14643 8.03383 6.24093 7.90183 6.24093C7.88533 6.24093 7.86733 6.23943 7.85083 6.23643C7.78183 6.22443 7.72333 6.18843 7.68283 6.13443C7.63333 6.17943 7.56883 6.20493 7.49833 6.20493C7.45633 6.20493 7.32433 6.14643 7.30183 6.12393C7.29583 6.11793 7.28983 6.11193 7.28533 6.10443C7.27933 6.10893 7.27333 6.11493 7.26733 6.11943C7.26433 6.12093 7.17883 6.17193 7.09183 6.17043C7.01083 6.16893 6.92983 6.11943 6.90583 6.09543C6.88183 6.12993 6.84883 6.15993 6.80983 6.18093C6.78283 6.19743 6.75283 6.20793 6.71983 6.21243C6.70483 6.21543 6.68983 6.21693 6.67483 6.21693C6.61483 6.21693 6.55633 6.19743 6.50833 6.16143C6.44533 6.11643 6.40483 6.05043 6.39433 5.97543L6.37483 5.84793V5.84643L6.34933 5.68293C6.33733 5.60793 6.35533 5.53293 6.40033 5.47143C6.44533 5.40843 6.51133 5.36793 6.58633 5.35743C6.60433 5.35443 6.62233 5.35293 6.64033 5.35443C6.64483 5.35443 6.65083 5.35443 6.65533 5.35593C6.70333 5.35893 6.75133 5.37543 6.79333 5.40543C6.79933 5.40993 6.80383 5.41443 6.80833 5.41743C6.81733 5.38293 6.83533 5.34993 6.85783 5.32293C6.86383 5.31393 6.86983 5.30643 6.87733 5.29893C6.88633 5.28843 6.89383 5.28393 6.89683 5.28093C6.89833 5.28093 6.89833 5.27943 6.89833 5.27943C6.94333 5.24043 7.00183 5.21643 7.06633 5.21343C7.08733 5.21193 7.10833 5.21343 7.12783 5.21643C7.14283 5.21943 7.15633 5.22393 7.16983 5.22843C7.20883 5.24043 7.24333 5.25993 7.27333 5.28693C7.28233 5.27493 7.29283 5.26293 7.30333 5.25243C7.31833 5.23743 7.33483 5.22393 7.35133 5.21343C7.36033 5.20743 7.37083 5.20293 7.37983 5.19693C7.41733 5.17893 7.45933 5.16993 7.50283 5.17143C7.55083 5.17143 7.59733 5.18343 7.63933 5.20743C7.64683 5.21043 7.65283 5.21493 7.65883 5.21943C7.67383 5.22993 7.68733 5.24193 7.70083 5.25543C7.72483 5.27943 7.74433 5.30793 7.75783 5.33793C7.77583 5.31093 7.79983 5.28543 7.82833 5.26593C7.83433 5.26143 7.84183 5.25693 7.84933 5.25393C7.87933 5.23743 7.91083 5.22543 7.94383 5.22093C7.97533 5.21643 8.00683 5.21643 8.03833 5.22243C8.11333 5.23593 8.17633 5.27793 8.21983 5.33943C8.26183 5.40243 8.27683 5.47593 8.26333 5.54943Z"
        fill="url(#paint23_linear_169_13080)" />
    <path
        d="M13.3982 14.4114L13.2932 14.1174H10.1477L10.0907 14.4174L8.74072 15.6039L10.2467 17.1684C10.2467 17.1684 11.2652 16.3179 11.3567 16.2369C11.4572 16.1469 11.5787 16.1364 11.6522 16.1349C11.7257 16.1364 11.8472 16.1469 11.9477 16.2369C12.0392 16.3194 13.0577 17.1684 13.0577 17.1684L14.6207 15.6039L13.3982 14.4114Z"
        fill="#7C7C7C" />
    <path
        d="M8.23503 5.71148C8.18253 5.84648 7.89754 5.71748 7.78954 5.66198C7.77304 5.52998 7.75654 5.44298 7.75654 5.44298C7.75654 5.44298 7.75654 5.44298 7.75654 5.44448C7.76104 5.51948 7.68604 5.57348 7.61554 5.54648C7.53604 5.51498 7.44454 5.48948 7.37854 5.49248C7.35304 5.49398 7.33204 5.49848 7.31254 5.50448C7.29454 5.44598 7.28403 5.40698 7.28403 5.40698C7.28403 5.40698 7.28403 5.41298 7.28403 5.42348C7.28103 5.47448 7.25704 5.52248 7.21504 5.55098C7.05154 5.65748 7.00954 5.85848 7.20304 6.07298C7.13704 6.11798 7.03354 6.11498 6.97504 6.05498C6.90004 5.97998 6.86853 5.74148 6.82503 5.56448C6.83853 5.69048 6.87604 5.91548 6.85804 6.00248C6.83554 6.10748 6.73053 6.17348 6.62553 6.14798C6.53403 6.12548 6.42604 6.05198 6.37354 5.84948L6.39304 5.97698C6.40354 6.05198 6.44404 6.11798 6.50704 6.16298C6.55504 6.19898 6.61354 6.21848 6.67354 6.21848C6.68854 6.21848 6.70354 6.21698 6.71854 6.21398C6.74704 6.20948 6.77254 6.20048 6.79654 6.18848C6.79804 6.18698 6.80103 6.18698 6.80253 6.18548C6.80403 6.18398 6.80704 6.18398 6.80854 6.18248C6.87154 6.14798 6.90304 6.09998 6.90454 6.09698C6.91204 6.10898 6.99004 6.17348 7.08454 6.17348C7.21504 6.17348 7.26604 6.12098 7.26604 6.12098C7.27804 6.12848 7.29004 6.13448 7.30204 6.13898C7.31104 6.14198 7.66203 6.26048 7.64853 6.39398C7.64703 6.41048 7.64854 6.42698 7.65004 6.44348V6.44948V6.45098C7.65454 6.48998 7.66354 6.52748 7.67704 6.56198L7.67853 6.56048C7.71453 6.53198 7.80153 6.55598 7.80903 6.50498C7.83753 6.31148 7.83003 6.08048 7.81203 5.88248L8.19003 5.94548L8.23503 5.71148Z"
        fill="#EDA600" />
    <path
        d="M8.30722 6.20037C8.23372 5.79687 7.74622 5.62887 7.56322 5.56437C7.54072 5.55687 7.20622 5.47738 7.16572 5.77438C7.14772 5.90338 7.24522 6.04437 7.36972 6.09237C7.71022 6.22287 7.70872 6.29487 7.70872 6.34287C7.70722 6.46737 7.77622 6.70288 7.88422 6.77338C7.90672 6.78838 7.93222 6.79737 7.95622 6.79737C7.97122 6.79737 7.98622 6.79437 8.00122 6.78837C8.21272 6.69987 8.34922 6.43587 8.30722 6.20037Z"
        fill="url(#paint24_linear_169_13080)" />
    <path
        d="M15.2595 5.86738C15.3945 5.78788 16.035 5.68738 16.4775 5.68738C16.7205 5.68738 16.902 5.71888 16.902 5.80138L16.9035 6.31588C16.905 6.83338 16.5675 7.25638 16.0095 7.25788H16.008C14.997 7.25788 14.916 6.06688 15.2595 5.86738Z"
        fill="url(#paint25_radial_169_13080)" />
    <path
        d="M15.2954 6.41647C15.3014 6.43597 15.3539 6.45547 15.4109 6.47047H15.4124C15.4784 6.48697 15.5564 6.51997 15.7019 6.56047C15.9044 6.61747 15.9209 6.88897 15.9209 6.88897C15.9584 6.74797 15.8624 6.50047 15.7289 6.44347V6.44197C15.6659 6.41197 15.5954 6.39547 15.5204 6.38347C15.5084 6.38197 15.4784 6.38047 15.4409 6.38197H15.4394C15.3719 6.38347 15.2879 6.39247 15.2954 6.41647Z"
        fill="#EDA600" />
    <path d="M15.5068 5.69348H17.0263L16.9063 6.44348H15.5068V5.69348Z" fill="#646464" />
    <path
        d="M15.1157 5.54943L15.1592 5.78193L15.1682 5.83293L15.1892 5.94543L15.2012 6.01143C15.2267 6.14643 15.3452 6.24093 15.4772 6.24093C15.4937 6.24093 15.5117 6.23943 15.5282 6.23643C15.5972 6.22443 15.6557 6.18843 15.6962 6.13443C15.7457 6.17943 15.8102 6.20493 15.8807 6.20493C15.9227 6.20493 16.0547 6.14643 16.0772 6.12393C16.0832 6.11793 16.0892 6.11193 16.0937 6.10443C16.0997 6.10893 16.1057 6.11493 16.1117 6.11943C16.1147 6.12093 16.2002 6.17193 16.2872 6.17043C16.3682 6.16893 16.4477 6.11943 16.4732 6.09543C16.4972 6.12993 16.5302 6.15993 16.5692 6.18093C16.5962 6.19743 16.6262 6.20793 16.6592 6.21243C16.6742 6.21543 16.6892 6.21693 16.7042 6.21693C16.7642 6.21693 16.8227 6.19743 16.8707 6.16143C16.9337 6.11643 16.9742 6.05043 16.9847 5.97543L17.0042 5.84793V5.84643L17.0297 5.68293C17.0417 5.60793 17.0237 5.53293 16.9787 5.47143C16.9337 5.40843 16.8677 5.36793 16.7927 5.35743C16.7747 5.35443 16.7567 5.35293 16.7387 5.35443C16.7342 5.35443 16.7282 5.35443 16.7237 5.35593C16.6757 5.35893 16.6277 5.37543 16.5857 5.40543C16.5797 5.40993 16.5752 5.41443 16.5707 5.41743C16.5617 5.38293 16.5437 5.34993 16.5212 5.32293C16.5152 5.31393 16.5092 5.30643 16.5017 5.29893C16.4927 5.28843 16.4852 5.28393 16.4822 5.28093C16.4807 5.28093 16.4807 5.27943 16.4807 5.27943C16.4357 5.24043 16.3772 5.21643 16.3127 5.21343C16.2917 5.21193 16.2707 5.21343 16.2512 5.21643C16.2362 5.21943 16.2227 5.22393 16.2092 5.22843C16.1702 5.24043 16.1357 5.25993 16.1057 5.28693C16.0967 5.27493 16.0862 5.26293 16.0757 5.25243C16.0607 5.23743 16.0442 5.22393 16.0277 5.21343C16.0187 5.20743 16.0082 5.20293 15.9992 5.19693C15.9617 5.17893 15.9197 5.16993 15.8762 5.17143C15.8282 5.17143 15.7817 5.18343 15.7397 5.20743C15.7322 5.21043 15.7262 5.21493 15.7202 5.21943C15.7052 5.22993 15.6917 5.24193 15.6782 5.25543C15.6542 5.27943 15.6347 5.30793 15.6212 5.33793C15.6032 5.31093 15.5792 5.28543 15.5507 5.26593C15.5447 5.26143 15.5372 5.25693 15.5297 5.25393C15.4997 5.23743 15.4682 5.22543 15.4352 5.22093C15.4037 5.21643 15.3722 5.21643 15.3407 5.22243C15.2657 5.23593 15.2027 5.27793 15.1592 5.33943C15.1172 5.40243 15.1022 5.47593 15.1157 5.54943Z"
        fill="url(#paint26_linear_169_13080)" />
    <path
        d="M15.144 5.71148C15.1965 5.84648 15.4815 5.71748 15.5895 5.66198C15.606 5.52998 15.6225 5.44298 15.6225 5.44298C15.6225 5.44298 15.6225 5.44298 15.6225 5.44448C15.618 5.51948 15.693 5.57348 15.7635 5.54648C15.843 5.51498 15.9345 5.48948 16.0005 5.49248C16.026 5.49398 16.047 5.49848 16.0665 5.50448C16.0845 5.44598 16.095 5.40698 16.095 5.40698C16.095 5.40698 16.095 5.41298 16.095 5.42348C16.098 5.47448 16.122 5.52248 16.164 5.55098C16.3275 5.65748 16.3695 5.85848 16.176 6.07298C16.242 6.11798 16.3455 6.11498 16.404 6.05498C16.479 5.97998 16.5105 5.74148 16.554 5.56448C16.5405 5.69048 16.503 5.91548 16.521 6.00248C16.542 6.10748 16.6485 6.17348 16.7535 6.14798C16.845 6.12548 16.953 6.05198 17.0055 5.84948L16.986 5.97698C16.9755 6.05198 16.935 6.11798 16.872 6.16298C16.824 6.19898 16.7655 6.21848 16.7055 6.21848C16.6905 6.21848 16.6755 6.21698 16.6605 6.21398C16.632 6.20948 16.6065 6.20048 16.5825 6.18848C16.581 6.18698 16.578 6.18698 16.5765 6.18548C16.575 6.18398 16.572 6.18398 16.5705 6.18248C16.5075 6.14798 16.476 6.09998 16.4745 6.09698C16.467 6.10898 16.389 6.17348 16.2945 6.17348C16.164 6.17348 16.113 6.12098 16.113 6.12098C16.101 6.12848 16.089 6.13448 16.077 6.13898C16.0665 6.14198 15.7185 6.26048 15.7305 6.39398C15.732 6.41048 15.7305 6.42698 15.729 6.44348V6.44948V6.45098C15.7245 6.48998 15.7155 6.52748 15.702 6.56198L15.7005 6.56048C15.6645 6.53198 15.5775 6.55598 15.57 6.50498C15.5415 6.31148 15.549 6.08048 15.567 5.88248L15.189 5.94548L15.144 5.71148Z"
        fill="#EDA600" />
    <path
        d="M15.072 6.20037C15.1455 5.79687 15.633 5.62887 15.816 5.56437C15.8385 5.55687 16.173 5.47738 16.2135 5.77438C16.2315 5.90338 16.134 6.04437 16.0095 6.09237C15.669 6.22287 15.6705 6.29487 15.6705 6.34287C15.672 6.46737 15.603 6.70288 15.495 6.77338C15.4725 6.78838 15.447 6.79737 15.423 6.79737C15.408 6.79737 15.393 6.79437 15.378 6.78837C15.1665 6.69987 15.03 6.43587 15.072 6.20037Z"
        fill="url(#paint27_linear_169_13080)" />
    <defs>
        <linearGradient id="paint0_linear_169_13080" x1="13.6338" y1="14.3002" x2="13.6338"
            y2="20.0493" gradientUnits="userSpaceOnUse">
            <stop stop-color="#FFB300" />
            <stop offset="0.5" stop-color="#FFCA28" />
        </linearGradient>
        <linearGradient id="paint1_linear_169_13080" x1="9.72802" y1="14.3002" x2="9.72802"
            y2="20.0493" gradientUnits="userSpaceOnUse">
            <stop stop-color="#FFB300" />
            <stop offset="0.5" stop-color="#FFCA28" />
        </linearGradient>
        <radialGradient id="paint2_radial_169_13080" cx="0" cy="0" r="1"
            gradientUnits="userSpaceOnUse"
            gradientTransform="translate(12.3671 9.5673) scale(1.08632 0.533598)">
            <stop offset="0.7275" stop-color="#6D4C41" stop-opacity="0" />
            <stop offset="1" stop-color="#6D4C41" />
        </radialGradient>
        <radialGradient id="paint3_radial_169_13080" cx="0" cy="0" r="1"
            gradientUnits="userSpaceOnUse"
            gradientTransform="translate(13.4376 9.40536) rotate(154.924) scale(0.321013 0.238146)">
            <stop offset="0.6628" stop-color="#6D4C41" />
            <stop offset="1" stop-color="#6D4C41" stop-opacity="0" />
        </radialGradient>
        <radialGradient id="paint4_radial_169_13080" cx="0" cy="0" r="1"
            gradientUnits="userSpaceOnUse"
            gradientTransform="translate(12.605 8.49786) rotate(-94.2783) scale(1.41009 1.17522)">
            <stop offset="0.7247" stop-color="#6D4C41" stop-opacity="0" />
            <stop offset="1" stop-color="#6D4C41" />
        </radialGradient>
        <radialGradient id="paint5_radial_169_13080" cx="0" cy="0" r="1"
            gradientUnits="userSpaceOnUse"
            gradientTransform="translate(10.7768 8.49765) rotate(-85.7217) scale(1.41009 1.17522)">
            <stop offset="0.7247" stop-color="#6D4C41" stop-opacity="0" />
            <stop offset="1" stop-color="#6D4C41" />
        </radialGradient>
        <radialGradient id="paint6_radial_169_13080" cx="0" cy="0" r="1"
            gradientUnits="userSpaceOnUse"
            gradientTransform="translate(11.0149 9.5673) rotate(180) scale(1.08632 0.533598)">
            <stop offset="0.7275" stop-color="#6D4C41" stop-opacity="0" />
            <stop offset="1" stop-color="#6D4C41" />
        </radialGradient>
        <radialGradient id="paint7_radial_169_13080" cx="0" cy="0" r="1"
            gradientUnits="userSpaceOnUse"
            gradientTransform="translate(9.94468 9.40548) rotate(25.0761) scale(0.321014 0.238146)">
            <stop offset="0.6628" stop-color="#6D4C41" />
            <stop offset="1" stop-color="#6D4C41" stop-opacity="0" />
        </radialGradient>
        <linearGradient id="paint8_linear_169_13080" x1="14.1815" y1="9.84187" x2="16.1071"
            y2="6.68837" gradientUnits="userSpaceOnUse">
            <stop stop-color="#FFB300" />
            <stop offset="0.5" stop-color="#FFCA28" />
        </linearGradient>
        <linearGradient id="paint9_linear_169_13080" x1="9.16042" y1="9.81499" x2="7.22089"
            y2="6.70337" gradientUnits="userSpaceOnUse">
            <stop stop-color="#FFB300" />
            <stop offset="0.5" stop-color="#FFCA28" />
        </linearGradient>
        <linearGradient id="paint10_linear_169_13080" x1="11.6807" y1="10.2119" x2="11.6807"
            y2="14.0364" gradientUnits="userSpaceOnUse">
            <stop stop-color="#F78C1F" />
            <stop offset="0.4936" stop-color="#F37F20" />
            <stop offset="1" stop-color="#ED6D23" />
        </linearGradient>
        <radialGradient id="paint11_radial_169_13080" cx="0" cy="0" r="1"
            gradientUnits="userSpaceOnUse"
            gradientTransform="translate(12.526 7.75344) rotate(72.0851) scale(1.65284 1.22637)">
            <stop offset="0.6985" stop-color="#6D4C41" stop-opacity="0" />
            <stop offset="1" stop-color="#6D4C41" />
        </radialGradient>
        <radialGradient id="paint12_radial_169_13080" cx="0" cy="0" r="1"
            gradientUnits="userSpaceOnUse"
            gradientTransform="translate(10.9149 5.95173) rotate(28.2026) scale(0.433374 0.513855)">
            <stop offset="0.58" stop-color="#6D4C41" />
            <stop offset="1" stop-color="#6D4C41" stop-opacity="0" />
        </radialGradient>
        <radialGradient id="paint13_radial_169_13080" cx="0" cy="0" r="1"
            gradientUnits="userSpaceOnUse"
            gradientTransform="translate(11.8837 6.73809) rotate(-157.19) scale(1.35538 0.76173)">
            <stop offset="0.6985" stop-color="#6D4C41" stop-opacity="0" />
            <stop offset="1" stop-color="#6D4C41" />
        </radialGradient>
        <radialGradient id="paint14_radial_169_13080" cx="0" cy="0" r="1"
            gradientUnits="userSpaceOnUse"
            gradientTransform="translate(10.7408 6.34695) scale(0.397785 0.48661)">
            <stop offset="0.7016" stop-color="#6D4C41" stop-opacity="0" />
            <stop offset="1" stop-color="#6D4C41" />
        </radialGradient>
        <radialGradient id="paint15_radial_169_13080" cx="0" cy="0" r="1"
            gradientUnits="userSpaceOnUse"
            gradientTransform="translate(10.6855 7.04924) rotate(-164.942) scale(0.746067 0.698183)">
            <stop offset="0.6605" stop-color="#6D4C41" stop-opacity="0" />
            <stop offset="1" stop-color="#6D4C41" />
        </radialGradient>
        <radialGradient id="paint16_radial_169_13080" cx="0" cy="0" r="1"
            gradientUnits="userSpaceOnUse"
            gradientTransform="translate(10.5098 7.76936) rotate(7.83355) scale(0.78328 1.10064)">
            <stop offset="0.5981" stop-color="#6D4C41" stop-opacity="0" />
            <stop offset="1" stop-color="#6D4C41" />
        </radialGradient>
        <radialGradient id="paint17_radial_169_13080" cx="0" cy="0" r="1"
            gradientUnits="userSpaceOnUse"
            gradientTransform="translate(7.38914 6.47308) scale(0.851595)">
            <stop stop-color="#FFB300" />
            <stop offset="0.5" stop-color="#FFCA28" />
        </radialGradient>
        <linearGradient id="paint18_linear_169_13080" x1="11.6807" y1="5.60032" x2="11.6807"
            y2="6.50905" gradientUnits="userSpaceOnUse">
            <stop stop-color="#BDBDBD" />
            <stop offset="1" stop-color="#757575" />
        </linearGradient>
        <radialGradient id="paint19_radial_169_13080" cx="0" cy="0" r="1"
            gradientUnits="userSpaceOnUse"
            gradientTransform="translate(5.21095 4.59555) rotate(90) scale(3.29282 1.85167)">
            <stop offset="0.3956" stop-color="#9E9E9E" />
            <stop offset="0.7899" stop-color="#646464" />
        </radialGradient>
        <radialGradient id="paint20_radial_169_13080" cx="0" cy="0" r="1"
            gradientUnits="userSpaceOnUse"
            gradientTransform="translate(18.1509 4.60853) rotate(90) scale(3.29282 1.85167)">
            <stop offset="0.3956" stop-color="#9E9E9E" />
            <stop offset="0.7899" stop-color="#646464" />
        </radialGradient>
        <radialGradient id="paint21_radial_169_13080" cx="0" cy="0" r="1"
            gradientUnits="userSpaceOnUse"
            gradientTransform="translate(3.61384 5.22126) scale(0.708522 1.22553)">
            <stop offset="0.4406" stop-color="#9E9E9E" />
            <stop offset="0.9854" stop-color="#646464" />
        </radialGradient>
        <radialGradient id="paint22_radial_169_13080" cx="0" cy="0" r="1"
            gradientUnits="userSpaceOnUse"
            gradientTransform="translate(19.7346 5.22126) rotate(180) scale(0.708522 1.22553)">
            <stop offset="0.4406" stop-color="#9E9E9E" />
            <stop offset="0.9854" stop-color="#646464" />
        </radialGradient>
        <linearGradient id="paint23_linear_169_13080" x1="7.30004" y1="5.78736" x2="7.31575"
            y2="5.29027" gradientUnits="userSpaceOnUse">
            <stop stop-color="#FFB300" />
            <stop offset="0.5" stop-color="#FFCA28" />
        </linearGradient>
        <linearGradient id="paint24_linear_169_13080" x1="7.33186" y1="6.34316" x2="8.12682"
            y2="5.94517" gradientUnits="userSpaceOnUse">
            <stop stop-color="#FFB300" />
            <stop offset="0.4693" stop-color="#FFCA28" />
        </linearGradient>
        <radialGradient id="paint25_radial_169_13080" cx="0" cy="0" r="1"
            gradientUnits="userSpaceOnUse"
            gradientTransform="translate(15.9899 6.47308) rotate(180) scale(0.851595)">
            <stop stop-color="#FFB300" />
            <stop offset="0.5" stop-color="#FFCA28" />
        </radialGradient>
        <linearGradient id="paint26_linear_169_13080" x1="16.0789" y1="5.78736" x2="16.0632"
            y2="5.29027" gradientUnits="userSpaceOnUse">
            <stop stop-color="#FFB300" />
            <stop offset="0.5" stop-color="#FFCA28" />
        </linearGradient>
        <linearGradient id="paint27_linear_169_13080" x1="16.0474" y1="6.34316" x2="15.2524"
            y2="5.94516" gradientUnits="userSpaceOnUse">
            <stop stop-color="#FFB300" />
            <stop offset="0.4693" stop-color="#FFCA28" />
        </linearGradient>
    </defs>
</svg>
