<svg width="24" height="25" viewBox="0 0 24 25" fill="none" xmlns="http://www.w3.org/2000/svg">
    <rect y="0.5" width="24" height="24" rx="12" fill="#D4FAE6" />
    <path
        d="M11.9381 5.06002C7.52862 4.94634 6.10074 8.35991 5.9916 9.64076C5.90672 10.6366 5.47926 14.2791 7.5559 16.7256C8.62757 17.9882 10.345 18.6173 12.1654 18.5749C14.0011 18.5324 15.6593 18.1671 16.775 16.6968C18.653 14.2215 18.453 10.523 18.1983 9.32699C17.9588 8.21439 17.0296 5.19038 11.9381 5.06002Z"
        fill="#FFEAC8" />
    <path
        d="M16.9498 11.7992C17.1059 12.9831 16.5921 14.1123 15.2385 14.1927C14.0001 14.2669 13.2361 13.4772 13.1755 12.3146C13.1133 11.1232 13.7651 10.0151 14.8004 9.90145C15.8933 9.7817 16.7952 10.6154 16.9498 11.7992Z"
        fill="#D27856" />
    <path
        d="M5.13827 6.08321C5.13827 6.08321 3.64824 6.66679 3.289 7.53383C2.80546 8.70099 3.02828 11.0171 3.289 11.916C3.54517 12.7982 4.22728 13.7092 5.28076 13.6804C6.33423 13.6516 7.25887 12.5845 7.58477 11.1914C7.91218 9.79691 7.98342 7.40802 8.08195 6.98056C8.18047 6.55311 8.35176 6.21205 8.35176 6.21205C8.35176 6.21205 7.04363 4.94485 5.13827 6.08321Z"
        fill="#D27856" />
    <path
        d="M17.6151 5.89823C17.6151 5.89823 19.6356 5.96947 20.1192 6.18319C20.6027 6.39692 21.0438 7.364 21.0014 8.65849C20.9589 9.95298 20.874 12.0463 20.2192 12.7693C19.6781 13.3666 18.5837 13.409 17.9713 12.6693C17.3589 11.9296 16.9754 10.6775 16.8329 9.86658C16.6904 9.05563 16.4494 8.00367 16.2918 7.53377C16.1357 7.06387 15.7506 6.12559 15.5521 5.91187C15.352 5.69966 15.7506 5.49957 17.6151 5.89823Z"
        fill="#D27856" />
    <path
        d="M6.81631 5.41471C5.72039 5.34498 3.91356 6.21202 3.54371 7.10785C3.17386 8.00369 3.39061 10.911 3.70135 11.7598C4.02876 12.6557 4.71087 13.7804 5.89168 12.8133C7.07248 11.8462 7.38474 9.41338 7.49994 8.63123C7.61362 7.84907 7.76975 6.89564 7.94103 6.69707C8.11232 6.4985 8.35333 6.21353 8.35333 6.21353C8.35333 6.21353 8.1684 5.49959 6.81631 5.41471Z"
        fill="#865B51" />
    <path
        d="M17.8557 5.22978C18.8849 5.30102 20.0036 5.68452 20.4159 6.58187C20.8282 7.4777 20.672 9.5983 20.5159 10.6078C20.3598 11.6173 19.9899 12.6708 19.0653 12.5571C18.1407 12.4435 17.6708 11.1914 17.3873 10.0106C17.1023 8.82979 16.8037 7.64899 16.4339 6.7956C16.211 6.28023 15.438 5.89976 15.438 5.89976C15.438 5.89976 15.779 5.0873 17.8557 5.22978Z"
        fill="#865B51" />
    <path
        d="M9.92851 12.2935C9.86788 12.8119 9.6011 13.2302 9.02207 13.1696C8.61129 13.1256 8.33541 12.636 8.39604 12.1161C8.45667 11.5977 8.63705 11.2248 9.12211 11.2339C9.87546 11.2476 9.98914 11.7736 9.92851 12.2935Z"
        fill="#2F2F2F" />
    <path
        d="M15.8766 12.1478C15.9008 12.6692 15.6947 13.1149 15.0929 13.1588C14.5699 13.1967 14.3016 12.7435 14.2789 12.2221C14.2547 11.7006 14.5139 11.2823 15.0125 11.2201C15.6598 11.1368 15.8523 11.6264 15.8766 12.1478Z"
        fill="#2F2F2F" />
    <path
        d="M13.6603 14.7763C13.6845 15.2977 13.3329 15.7858 12.237 15.7721C11.1698 15.7585 10.7818 15.3265 10.7575 14.8051C10.7333 14.2836 11.3396 13.8152 12.2082 13.7955C13.4041 13.7652 13.636 14.2533 13.6603 14.7763Z"
        fill="#2F2F2F" />
    <path
        d="M11.2407 16.8817C11.2407 16.8817 11.3696 18.1201 11.4969 18.4899C11.7667 19.2721 12.9036 19.1417 13.1052 18.4051C13.2764 17.779 13.1628 16.6983 13.1628 16.6983L12.1532 16.5558L11.2407 16.8817Z"
        fill="#E94B8C" />
    <path
        d="M12.2719 17.294C12.0945 17.3015 12.1006 17.4652 12.1006 17.8412C12.1006 18.2186 12.1218 18.446 12.2931 18.4384C12.4644 18.4308 12.4432 18.1398 12.4432 17.87C12.4432 17.6001 12.4568 17.2864 12.2719 17.294Z"
        fill="#EF87B2" />
    <path
        d="M9.87492 15.707C9.67029 16.0087 10.0674 16.2754 10.3948 16.4968C10.7223 16.7165 11.1194 17.0515 11.5893 17.044C12.1153 17.0364 12.2578 16.6817 12.2578 16.6817C12.2578 16.6817 12.429 17.1016 13.1748 17.0227C13.5735 16.9803 14.0646 16.5331 14.2131 16.4331C14.4981 16.2406 14.8392 15.9996 14.6891 15.7995C14.5178 15.5706 14.1555 15.8783 13.7857 16.0693C13.4158 16.2618 13.2885 16.3543 13.0111 16.3543C12.7337 16.3543 12.5412 16.2406 12.5276 15.7783C12.5154 15.4008 12.52 15.3296 12.52 15.3296H11.8864C11.8864 15.3296 11.9076 15.7282 11.9076 15.8419C11.9076 16.1405 11.7515 16.2694 11.4529 16.283C11.1543 16.2967 10.8344 16.0481 10.6768 15.9556C10.5222 15.8647 10.0386 15.466 9.87492 15.707Z"
        fill="#2F2F30" />
</svg>
