<svg width="24" height="25" viewBox="0 0 24 25" fill="none" xmlns="http://www.w3.org/2000/svg">
    <rect y="0.5" width="24" height="24" rx="12" fill="#D4FAE6" />
    <path
        d="M7.94244 4.10811L8.72957 1.31738H9.62403L8.8369 4.26912C8.78324 4.55535 8.5149 4.75213 8.26445 4.68057C8.014 4.60902 7.88877 4.37645 7.94244 4.10811Z"
        fill="url(#paint0_linear_169_12970)" />
    <path
        d="M15.9748 4.10811L15.2413 1.31738H14.3647L15.0982 4.26912C15.1519 4.55535 15.4202 4.75213 15.6707 4.68057C15.9032 4.60902 16.0285 4.37645 15.9748 4.10811Z"
        fill="url(#paint1_linear_169_12970)" />
    <path opacity="0.2"
        d="M9.37344 1.49628L8.63998 4.21545C8.6042 4.37646 8.47897 4.50168 8.33586 4.50168C8.31797 4.50168 8.30008 4.50168 8.28219 4.50168C8.15696 4.4659 8.06752 4.32279 8.1033 4.16178L8.85465 1.49628H9.37344ZM9.606 1.31738H8.71153L7.9244 4.10812C7.87074 4.37646 8.01385 4.60902 8.22852 4.66268C8.2643 4.66268 8.30008 4.68057 8.31797 4.68057C8.53264 4.68057 8.74731 4.50168 8.80098 4.25123L9.606 1.31738Z"
        fill="#EEEEEE" />
    <path opacity="0.2"
        d="M15.0982 1.49628L15.7959 4.14389C15.8317 4.3049 15.7601 4.4659 15.617 4.50168C15.5991 4.50168 15.5812 4.50168 15.5633 4.50168C15.4202 4.50168 15.295 4.37645 15.2592 4.21545L14.5794 1.49628H15.0982ZM15.2413 1.31738H14.3647L15.0982 4.26912C15.1519 4.51957 15.3487 4.69846 15.5812 4.69846C15.617 4.69846 15.6528 4.69846 15.6886 4.68057C15.9211 4.6269 16.0463 4.37645 15.9927 4.126C15.9748 4.10812 15.2413 1.31738 15.2413 1.31738Z"
        fill="#EEEEEE" />
    <path
        d="M20.8944 19.8149L14.6331 9.22443L15.9569 4.5911C16.1358 4.0902 15.7602 3.53563 15.2235 3.55352C14.812 3.55352 11.9676 5.5929 11.9676 5.5929C11.9676 5.5929 9.12322 3.53563 8.69387 3.55352C8.19297 3.57141 7.83519 4.10809 7.99619 4.5911L9.30211 9.22443L3.05874 19.8149C2.93352 19.9759 2.95141 20.1906 3.11241 20.3158C4.22155 21.2282 7.99619 22.7845 12.0034 22.7845C16.0106 22.7845 19.7495 21.246 20.8407 20.3337C21.0017 20.1906 21.0196 19.9759 20.8944 19.8149Z"
        fill="url(#paint2_linear_169_12970)" />
    <path opacity="0.2"
        d="M11.0733 21.1387L11.9857 8.81299V8.84877L12.8801 21.1387C12.9517 22.069 12.5581 22.7488 12.0214 22.7845C11.4848 22.8203 11.0375 22.0511 11.0733 21.1387Z"
        fill="#283593" />
    <path opacity="0.2"
        d="M5.52742 19.8507L10.8763 9.06348L10.8584 9.09926L7.19112 20.5305C6.92278 21.3892 6.29666 21.8722 5.77787 21.6933C5.29486 21.5144 5.16963 20.6736 5.52742 19.8507Z"
        fill="#283593" />
    <path opacity="0.2"
        d="M18.5685 19.8507L13.2017 9.06348L13.2195 9.09926L16.8869 20.5305C17.1552 21.3892 17.7813 21.8722 18.3001 21.6933C18.801 21.5144 18.9262 20.6736 18.5685 19.8507Z"
        fill="#283593" />
    <path d="M14.6331 9.22445H9.31997L8.89062 7.70386H15.0624L14.6331 9.22445Z" fill="#1A237E" />
    <path opacity="0.2"
        d="M15.2593 4.09027C15.3308 4.10816 15.3845 4.16183 15.4024 4.17971C15.456 4.25127 15.4739 4.34072 15.4381 4.41228C15.4381 4.41228 15.4381 4.43016 15.4203 4.43016L14.0964 9.0635C14.0607 9.20661 14.0786 9.34972 14.1501 9.47495L20.3756 19.9939C19.3022 20.8168 15.8496 22.2479 12.0034 22.2479C8.13931 22.2479 4.66878 20.8168 3.57753 20.0118L9.78512 9.51073C9.85668 9.3855 9.87457 9.24239 9.83879 9.09927L8.53287 4.46594V4.44805C8.51498 4.3765 8.51498 4.28705 8.56865 4.21549C8.58654 4.17971 8.62232 4.14394 8.69387 4.12605C9.08744 4.26916 10.5186 5.21729 11.6814 6.05809C11.7708 6.12965 11.8782 6.16543 12.0034 6.16543C12.1286 6.16543 12.2181 6.12965 12.3254 6.05809C13.4524 5.18152 14.8836 4.23338 15.2593 4.09027ZM15.2235 3.55359C14.812 3.55359 11.9676 5.59297 11.9676 5.59297C11.9676 5.59297 9.14111 3.55359 8.69387 3.55359C8.19297 3.57148 7.83519 4.10816 7.99619 4.59117L9.30211 9.2245L3.05874 19.815C2.93352 19.976 2.95141 20.1906 3.11241 20.3159C4.22155 21.2282 7.99619 22.7846 12.0034 22.7846C16.0106 22.7846 19.7495 21.2461 20.8407 20.3338C20.9838 20.2085 21.0196 19.9939 20.8944 19.8329L14.6331 9.2245L15.9569 4.59117C16.1179 4.09027 15.7423 3.55359 15.2235 3.55359Z"
        fill="#EEEEEE" />
    <defs>
        <linearGradient id="paint0_linear_169_12970" x1="8.7771" y1="1.15965" x2="8.7771"
            y2="4.72226" gradientUnits="userSpaceOnUse">
            <stop offset="0.5612" stop-color="#3949AB" />
            <stop offset="0.802" stop-color="#2D3B9B" />
            <stop offset="1" stop-color="#283593" />
        </linearGradient>
        <linearGradient id="paint1_linear_169_12970" x1="15.1759" y1="1.31736" x2="15.1759"
            y2="4.59864" gradientUnits="userSpaceOnUse">
            <stop offset="0.5612" stop-color="#3949AB" />
            <stop offset="0.802" stop-color="#2D3B9B" />
            <stop offset="1" stop-color="#283593" />
        </linearGradient>
        <linearGradient id="paint2_linear_169_12970" x1="11.9766" y1="5.39968" x2="11.9766"
            y2="22.6486" gradientUnits="userSpaceOnUse">
            <stop stop-color="#3949AB" />
            <stop offset="1" stop-color="#283593" />
        </linearGradient>
    </defs>
</svg>
