<svg width="24" height="24" viewBox="0 0 24 24" fill="none" xmlns="http://www.w3.org/2000/svg">
    <path
        d="M9.66788 21.4789H5.97949V15.7926C5.97949 15.2076 6.45798 14.7291 7.04296 14.7291H8.60291C9.1879 14.7291 9.66638 15.2076 9.66638 15.7926V21.4789H9.66788Z"
        fill="#795548" />
    <path opacity="0.2"
        d="M8.60487 15.1791C8.94386 15.1791 9.21835 15.4551 9.21835 15.7926V21.0289H6.42993V15.7926C6.42993 15.4536 6.70592 15.1791 7.04341 15.1791H8.60487ZM8.60487 14.7291H7.04491C6.45993 14.7291 5.98145 15.2076 5.98145 15.7926V21.4789H9.66833V15.7926C9.66833 15.2076 9.18985 14.7291 8.60487 14.7291Z"
        fill="#424242" />
    <path
        d="M2.8373 12.2542C2.9333 10.1468 6.3427 4.33294 6.3427 4.33294C6.52569 3.79446 7.53666 3.79446 7.71965 4.33294C7.71965 4.33294 11.0286 10.1993 11.0211 12.3007C11.0151 14.3736 10.5111 17.249 7.03117 17.249C3.44928 17.249 2.7413 14.3241 2.8373 12.2542Z"
        fill="url(#paint0_radial_169_12876)" />
    <path opacity="0.2"
        d="M7.03117 4.41093C7.17367 4.41093 7.25617 4.46643 7.26367 4.48743L7.27867 4.52943L7.30117 4.56842C8.20264 6.17038 10.5441 10.6792 10.5396 12.2992C10.5306 15.3471 9.4146 16.7676 7.03117 16.7676C5.87921 16.7676 4.98074 16.4376 4.35976 15.7881C3.36079 14.7426 3.27829 13.1392 3.31729 12.2752C3.39229 10.6462 5.82671 6.16438 6.75818 4.57592L6.78218 4.53392L6.79718 4.48743C6.80468 4.46643 6.88718 4.41093 7.03117 4.41093ZM7.03117 3.92944C6.73268 3.92944 6.43419 4.06444 6.3427 4.33293C6.3427 4.33293 2.9333 10.1468 2.8373 12.2542C2.7413 14.3241 3.44928 17.249 7.03117 17.249C10.5111 17.249 11.0151 14.3736 11.0211 12.3007C11.0271 10.1993 7.71965 4.33293 7.71965 4.33293C7.62816 4.06444 7.32966 3.92944 7.03117 3.92944Z"
        fill="#424242" />
    <path
        d="M2.91987 20.8444C2.91537 20.6689 2.92437 20.3614 3.01586 20.0494C3.12386 19.6819 3.36235 19.2169 3.87834 19.0909C3.96233 19.0699 4.04783 19.0594 4.13183 19.0594C4.19933 19.0594 4.26832 19.0654 4.33582 19.0789C4.34482 19.0804 4.35532 19.0819 4.36432 19.0819C4.43032 19.0819 4.48882 19.0384 4.50832 18.9739C4.64331 18.5119 5.0723 18.1895 5.55379 18.1895C5.93327 18.1895 6.27826 18.3814 6.47926 18.7039C6.50776 18.7489 6.55575 18.7744 6.60675 18.7744C6.61875 18.7744 6.63075 18.7729 6.64275 18.7699C6.72825 18.7489 6.81525 18.7384 6.90224 18.7384C6.96824 18.7384 7.03424 18.7444 7.09874 18.7564C7.57422 18.8419 7.93721 19.2274 7.98371 19.6954C7.99871 19.8454 7.97021 19.9924 7.90421 20.1109C7.87121 20.1694 7.87721 20.2504 7.92521 20.2984C8.03321 20.4064 8.03771 20.5864 7.98671 20.7079C7.97021 20.7484 7.92071 20.8429 7.83372 20.8429H2.91987V20.8444Z"
        fill="url(#paint1_radial_169_12876)" />
    <path
        d="M5.55364 18.341C5.88063 18.341 6.17913 18.5075 6.35162 18.785C6.40712 18.875 6.50462 18.926 6.60661 18.926C6.63061 18.926 6.65461 18.923 6.67861 18.917C6.75211 18.899 6.82711 18.89 6.9021 18.89C6.9591 18.89 7.0161 18.8945 7.0731 18.905C7.47509 18.977 7.79608 19.316 7.83508 19.7105C7.84707 19.8305 7.82458 19.946 7.77358 20.0375C7.68808 20.1904 7.74508 20.3299 7.81858 20.4049C7.85457 20.4409 7.87257 20.5054 7.86657 20.5744C7.86058 20.6389 7.83508 20.6809 7.82308 20.6944H3.06972C3.07422 20.5294 3.09522 20.3104 3.15972 20.0915C3.30071 19.6115 3.55571 19.3235 3.91419 19.2365C3.98619 19.2185 4.05969 19.2095 4.13319 19.2095C4.19169 19.2095 4.25018 19.2155 4.30868 19.226C4.32818 19.229 4.34618 19.232 4.36418 19.232C4.49468 19.232 4.61467 19.1465 4.65217 19.016C4.76767 18.6185 5.13816 18.341 5.55364 18.341ZM5.55364 18.041C4.98966 18.041 4.51418 18.4175 4.36418 18.9335C4.28918 18.92 4.21119 18.911 4.13169 18.911C4.03719 18.911 3.94119 18.9215 3.8422 18.9455C3.32471 19.0715 3.02172 19.496 2.87173 20.0075C2.72473 20.5054 2.77873 20.9914 2.77873 20.9959H7.83508C8.15007 20.9959 8.29556 20.4589 8.03157 20.195C8.03007 20.1935 8.16507 19.9985 8.13357 19.6835C8.08107 19.1465 7.65658 18.7085 7.1271 18.6125C7.0506 18.599 6.9771 18.593 6.9036 18.593C6.80161 18.593 6.70261 18.605 6.60811 18.629C6.38762 18.275 5.99763 18.041 5.55364 18.041Z"
        fill="#689F38" />
    <path d="M6.77177 19.4344C6.77177 19.4344 6.78377 19.0954 6.50928 18.731" stroke="#689F38"
        stroke-width="0.299991" stroke-miterlimit="10" stroke-linecap="round"
        stroke-linejoin="round" />
    <path d="M4.38379 19.0745C4.70478 19.0805 5.01827 19.331 5.06477 19.6399" stroke="#689F38"
        stroke-width="0.299991" stroke-miterlimit="10" stroke-linecap="round"
        stroke-linejoin="round" />
    <path d="M4.71387 19.7825C4.99586 19.655 5.37535 19.6745 5.66634 19.823" stroke="#689F38"
        stroke-width="0.299991" stroke-miterlimit="10" stroke-linecap="round"
        stroke-linejoin="round" />
    <path
        d="M13.2726 6.62927L6.27686 12.6261H6.77634V21.4713H19.7689V12.6261H20.2684L13.2726 6.62927Z"
        fill="url(#paint2_radial_169_12876)" />
    <path opacity="0.2"
        d="M13.2722 7.22188L19.359 12.4387C19.3335 12.4957 19.3185 12.5587 19.3185 12.6247V21.02H7.22584V12.6262C7.22584 12.5602 7.21084 12.4957 7.18534 12.4402L13.2722 7.22188ZM13.2722 6.62939L6.27637 12.6262H6.77585V21.4714H19.7685V12.6262H20.2679L13.2722 6.62939Z"
        fill="#424242" />
    <path opacity="0.2"
        d="M14.3956 9.37873C14.5336 9.37873 14.6461 9.49122 14.6461 9.62922V11.8777C14.6461 12.0156 14.5336 12.1281 14.3956 12.1281H12.1472C12.0092 12.1281 11.8967 12.0156 11.8967 11.8777V9.62772C11.8967 9.48972 12.0092 9.37723 12.1472 9.37723H14.3956M14.3956 9.07874H12.1472C11.8442 9.07874 11.5967 9.32473 11.5967 9.62922V11.8777C11.5967 12.1806 11.8427 12.4281 12.1472 12.4281H14.3956C14.6986 12.4281 14.9461 12.1821 14.9461 11.8777V9.62772C14.9461 9.32473 14.7001 9.07874 14.3956 9.07874Z"
        fill="#424242" />
    <path opacity="0.2"
        d="M17.5201 13.6252C17.6581 13.6252 17.7706 13.7377 17.7706 13.8757V17.3736C17.7706 17.5116 17.6581 17.6241 17.5201 17.6241H15.2702C15.1322 17.6241 15.0197 17.5116 15.0197 17.3736V13.8757C15.0197 13.7377 15.1322 13.6252 15.2702 13.6252H17.5201ZM17.5201 13.3252H15.2702C14.9672 13.3252 14.7197 13.5712 14.7197 13.8757V17.3736C14.7197 17.6766 14.9657 17.9241 15.2702 17.9241H17.5186C17.8216 17.9241 18.0691 17.6781 18.0691 17.3736V13.8757C18.0691 13.5727 17.8231 13.3252 17.5201 13.3252Z"
        fill="#424242" />
    <path
        d="M13.2723 19.6219H8.77539V13.3761C8.77539 13.2381 8.88789 13.1256 9.02588 13.1256H13.0233C13.1613 13.1256 13.2738 13.2381 13.2738 13.3761V19.6219H13.2723Z"
        fill="url(#paint3_radial_169_12876)" />
    <path
        d="M12.7728 19.319H9.27489C9.20589 19.319 9.15039 19.2635 9.15039 19.1945V13.5547C9.15039 13.4857 9.20589 13.4302 9.27489 13.4302H12.7728C12.8418 13.4302 12.8973 13.4857 12.8973 13.5547V19.1945C12.8973 19.2635 12.8418 19.319 12.7728 19.319Z"
        fill="url(#paint4_radial_169_12876)" />
    <path d="M12.0864 9.56628H14.4594V11.9392H12.0864V9.56628Z" fill="#4FC3F7" />
    <path
        d="M11.8989 9.62769V11.8761C11.8989 12.0141 12.0114 12.1266 12.1494 12.1266H14.3978C14.5358 12.1266 14.6483 12.0141 14.6483 11.8761V9.62769C14.6483 9.48969 14.5358 9.3772 14.3978 9.3772H12.1479C12.0099 9.3787 11.8989 9.48969 11.8989 9.62769ZM14.3963 10.6267H13.3974V9.62769H14.3963V10.6267ZM13.1484 9.62769V10.6267H12.1494V9.62769H13.1484ZM12.1479 10.8772H13.1469V11.8761H12.1479V10.8772ZM13.3974 11.8761V10.8772H14.3963V11.8761H13.3974Z"
        fill="#EEEEEE" />
    <path d="M15.1504 13.8126H17.6418V17.435H15.1504V13.8126Z" fill="#4FC3F7" />
    <path
        d="M12.3988 15.8735H9.65086C9.58187 15.8735 9.52637 15.8181 9.52637 15.7491V14.0001C9.52637 13.9311 9.58187 13.8756 9.65086 13.8756H12.3988C12.4678 13.8756 12.5233 13.9311 12.5233 14.0001V15.7491C12.5233 15.8181 12.4678 15.8735 12.3988 15.8735Z"
        fill="url(#paint5_radial_169_12876)" />
    <path
        d="M12.3988 18.8719H9.65086C9.58187 18.8719 9.52637 18.8164 9.52637 18.7474V16.499C9.52637 16.43 9.58187 16.3745 9.65086 16.3745H12.3988C12.4678 16.3745 12.5233 16.43 12.5233 16.499V18.7474C12.5233 18.8164 12.4678 18.8719 12.3988 18.8719Z"
        fill="url(#paint6_radial_169_12876)" />
    <path
        d="M13.7752 20.0375H8.27783V19.58C8.27783 19.409 8.41583 19.271 8.58682 19.271H13.4647C13.6357 19.271 13.7737 19.409 13.7737 19.58V20.0375H13.7752Z"
        fill="url(#paint7_linear_169_12876)" />
    <path opacity="0.3"
        d="M13.4661 19.421C13.5546 19.421 13.6251 19.493 13.6251 19.58V19.8875H8.42779V19.58C8.42779 19.4915 8.49979 19.421 8.58679 19.421H13.4661ZM13.4661 19.271H8.58829C8.41729 19.271 8.2793 19.409 8.2793 19.58V20.0375H13.7766V19.58C13.7751 19.409 13.6371 19.271 13.4661 19.271Z"
        fill="#263238" />
    <path opacity="0.2"
        d="M10.841 19.5804C10.8524 19.5538 10.8177 19.5135 10.7636 19.4904C10.7095 19.4674 10.6564 19.4703 10.6451 19.497C10.6337 19.5237 10.6684 19.564 10.7225 19.587C10.7766 19.6101 10.8297 19.6071 10.841 19.5804Z"
        fill="#424242" />
    <path opacity="0.2"
        d="M13.1947 19.828C13.2108 19.808 13.1937 19.7673 13.1564 19.737C13.1191 19.7068 13.0758 19.6984 13.0596 19.7183C13.0434 19.7382 13.0605 19.7789 13.0978 19.8092C13.1351 19.8395 13.1785 19.8479 13.1947 19.828Z"
        fill="#424242" />
    <path opacity="0.08"
        d="M11.0616 19.7854C11.1329 19.7854 11.1906 19.7572 11.1906 19.7224C11.1906 19.6876 11.1329 19.6594 11.0616 19.6594C10.9904 19.6594 10.9326 19.6876 10.9326 19.7224C10.9326 19.7572 10.9904 19.7854 11.0616 19.7854Z"
        fill="#424242" />
    <path opacity="0.08"
        d="M12.17 19.7779C12.2413 19.7779 12.299 19.7496 12.299 19.7149C12.299 19.6801 12.2413 19.6519 12.17 19.6519C12.0988 19.6519 12.041 19.6801 12.041 19.7149C12.041 19.7496 12.0988 19.7779 12.17 19.7779Z"
        fill="#424242" />
    <path opacity="0.08"
        d="M11.9049 19.61C11.9538 19.61 11.9934 19.5858 11.9934 19.556C11.9934 19.5261 11.9538 19.502 11.9049 19.502C11.856 19.502 11.8164 19.5261 11.8164 19.556C11.8164 19.5858 11.856 19.61 11.9049 19.61Z"
        fill="#424242" />
    <path opacity="0.08"
        d="M13.3472 19.6535C13.4176 19.6535 13.4747 19.6192 13.4747 19.577C13.4747 19.5347 13.4176 19.5005 13.3472 19.5005C13.2768 19.5005 13.2197 19.5347 13.2197 19.577C13.2197 19.6192 13.2768 19.6535 13.3472 19.6535Z"
        fill="#424242" />
    <path opacity="0.08"
        d="M10.2921 19.5799C10.341 19.5799 10.3806 19.5604 10.3806 19.5364C10.3806 19.5124 10.341 19.4929 10.2921 19.4929C10.2432 19.4929 10.2036 19.5124 10.2036 19.5364C10.2036 19.5604 10.2432 19.5799 10.2921 19.5799Z"
        fill="#424242" />
    <path opacity="0.08"
        d="M12.8426 19.6852C12.9212 19.6734 12.9803 19.6326 12.9745 19.5941C12.9687 19.5556 12.9002 19.534 12.8216 19.5458C12.7429 19.5577 12.6839 19.5985 12.6897 19.637C12.6955 19.6755 12.764 19.6971 12.8426 19.6852Z"
        fill="#424242" />
    <path opacity="0.2"
        d="M10.5106 19.7738C10.5856 19.7562 10.6393 19.7119 10.6306 19.6748C10.6219 19.6377 10.5541 19.6219 10.4791 19.6395C10.4041 19.6571 10.3503 19.7015 10.359 19.7386C10.3677 19.7757 10.4356 19.7914 10.5106 19.7738Z"
        fill="#424242" />
    <path opacity="0.2"
        d="M12.3997 19.6009C12.4974 19.6009 12.5766 19.572 12.5766 19.5364C12.5766 19.5008 12.4974 19.4719 12.3997 19.4719C12.3019 19.4719 12.2227 19.5008 12.2227 19.5364C12.2227 19.572 12.3019 19.6009 12.3997 19.6009Z"
        fill="#424242" />
    <path opacity="0.2"
        d="M11.3628 19.5438C11.4119 19.5115 11.4402 19.4678 11.4261 19.4464C11.412 19.425 11.3607 19.4338 11.3116 19.4662C11.2625 19.4985 11.2341 19.5422 11.2482 19.5636C11.2624 19.585 11.3136 19.5762 11.3628 19.5438Z"
        fill="#424242" />
    <path opacity="0.2"
        d="M11.8266 19.781C11.8433 19.7449 11.7818 19.681 11.6893 19.6383C11.5968 19.5956 11.5083 19.5902 11.4916 19.6263C11.4749 19.6624 11.5364 19.7263 11.6289 19.769C11.7214 19.8118 11.8099 19.8171 11.8266 19.781Z"
        fill="#424242" />
    <path opacity="0.2"
        d="M9.80842 19.8852C9.82461 19.8653 9.80749 19.8246 9.7702 19.7943C9.7329 19.764 9.68954 19.7556 9.67335 19.7755C9.65716 19.7955 9.67428 19.8362 9.71158 19.8665C9.74888 19.8968 9.79224 19.9052 9.80842 19.8852Z"
        fill="#424242" />
    <path opacity="0.08"
        d="M8.78476 19.835C8.856 19.835 8.91375 19.8068 8.91375 19.772C8.91375 19.7372 8.856 19.709 8.78476 19.709C8.71352 19.709 8.65576 19.7372 8.65576 19.772C8.65576 19.8068 8.71352 19.835 8.78476 19.835Z"
        fill="#424242" />
    <path opacity="0.08"
        d="M8.51916 19.6684C8.56804 19.6684 8.60766 19.6442 8.60766 19.6144C8.60766 19.5846 8.56804 19.5604 8.51916 19.5604C8.47029 19.5604 8.43066 19.5846 8.43066 19.6144C8.43066 19.6442 8.47029 19.6684 8.51916 19.6684Z"
        fill="#424242" />
    <path opacity="0.08"
        d="M9.96197 19.712C10.0324 19.712 10.0895 19.6777 10.0895 19.6355C10.0895 19.5932 10.0324 19.559 9.96197 19.559C9.89155 19.559 9.83447 19.5932 9.83447 19.6355C9.83447 19.6777 9.89155 19.712 9.96197 19.712Z"
        fill="#424242" />
    <path opacity="0.08"
        d="M9.45734 19.7437C9.53597 19.7318 9.59502 19.691 9.58922 19.6525C9.58341 19.614 9.51496 19.5924 9.43633 19.6043C9.35769 19.6161 9.29865 19.6569 9.30445 19.6954C9.31025 19.7339 9.3787 19.7555 9.45734 19.7437Z"
        fill="#424242" />
    <path opacity="0.2"
        d="M9.0144 19.6579C9.11215 19.6579 9.19139 19.6291 9.19139 19.5934C9.19139 19.5578 9.11215 19.5289 9.0144 19.5289C8.91665 19.5289 8.8374 19.5578 8.8374 19.5934C8.8374 19.6291 8.91665 19.6579 9.0144 19.6579Z"
        fill="#424242" />
    <path
        d="M15.2705 13.6251C15.1325 13.6251 15.02 13.7376 15.02 13.8756V17.3735C15.02 17.5115 15.1325 17.624 15.2705 17.624H17.5189C17.6569 17.624 17.7694 17.5115 17.7694 17.3735V13.8756C17.7694 13.7376 17.6569 13.6251 17.5189 13.6251H15.2705ZM16.52 13.8756H17.5189V14.8746H16.52V13.8756ZM15.2705 13.8756H16.2695V14.8746H15.2705V13.8756ZM15.2705 15.1251H16.2695V16.124H15.2705V15.1251ZM16.271 17.3735H15.272V16.3745H16.271V17.3735ZM17.5204 17.3735H16.5215V16.3745H17.5204V17.3735ZM16.52 16.124V15.1251H17.5189V16.124H16.52Z"
        fill="#EEEEEE" />
    <path
        d="M12.3648 16.7735C12.0753 16.7735 11.8398 16.538 11.8398 16.2485C11.8398 15.959 12.0753 15.7235 12.3648 15.7235C12.6543 15.7235 12.8898 15.959 12.8898 16.2485C12.8898 16.538 12.6543 16.7735 12.3648 16.7735Z"
        fill="#FFC107" />
    <path
        d="M12.3649 15.8735C12.5719 15.8735 12.7399 16.0415 12.7399 16.2485C12.7399 16.4555 12.5719 16.6235 12.3649 16.6235C12.1579 16.6235 11.9899 16.4555 11.9899 16.2485C11.9899 16.0415 12.1579 15.8735 12.3649 15.8735ZM12.3649 15.5735C11.9929 15.5735 11.6899 15.8765 11.6899 16.2485C11.6899 16.6205 11.9929 16.9234 12.3649 16.9234C12.7369 16.9234 13.0399 16.6205 13.0399 16.2485C13.0399 15.8765 12.7369 15.5735 12.3649 15.5735Z"
        fill="#C62828" />
    <path
        d="M17.8939 18.1235H14.897C14.759 18.1235 14.6465 18.011 14.6465 17.873V17.3735C14.6465 17.2355 14.759 17.123 14.897 17.123H17.8954C18.0334 17.123 18.1459 17.2355 18.1459 17.3735V17.873C18.1444 18.011 18.0319 18.1235 17.8939 18.1235Z"
        fill="#795548" />
    <path opacity="0.2"
        d="M17.8939 17.3735V17.873H14.897V17.3735H17.8939ZM17.8939 17.123H14.897C14.759 17.123 14.6465 17.2355 14.6465 17.3735V17.873C14.6465 18.011 14.759 18.1235 14.897 18.1235H17.8954C18.0334 18.1235 18.1459 18.011 18.1459 17.873V17.3735C18.1444 17.2355 18.0319 17.123 17.8939 17.123Z"
        fill="#424242" />
    <path
        d="M20.5532 12.2767L13.6714 6.2799C13.4419 6.0789 13.1014 6.0789 12.8719 6.2799L5.99165 12.2767C5.73365 12.5017 5.70365 12.8962 5.92565 13.1572C6.14614 13.4197 6.53463 13.4497 6.79262 13.2247L13.0279 7.79185C13.1689 7.66885 13.3789 7.66885 13.5199 7.79185L19.7552 13.2247C19.8707 13.3252 20.0132 13.3747 20.1542 13.3747C20.3267 13.3747 20.4992 13.3012 20.6207 13.1572C20.8412 12.8962 20.8112 12.5017 20.5532 12.2767Z"
        fill="url(#paint8_radial_169_12876)" />
    <path opacity="0.2"
        d="M13.2724 6.57987C13.2994 6.57987 13.3384 6.58737 13.3774 6.61887L20.2592 12.6157C20.3312 12.6787 20.3402 12.7942 20.2772 12.8677C20.2352 12.9187 20.1827 12.9262 20.1542 12.9262C20.1272 12.9262 20.0882 12.9187 20.0507 12.8872L13.8139 7.45284C13.6639 7.32235 13.4719 7.25035 13.2724 7.25035C13.0729 7.25035 12.8809 7.32235 12.7309 7.45284L6.49563 12.8857C6.45813 12.9187 6.41763 12.9247 6.39213 12.9247C6.36513 12.9247 6.31264 12.9172 6.26914 12.8662C6.20764 12.7927 6.21514 12.6772 6.28714 12.6142L13.1689 6.61737C13.2049 6.58737 13.2454 6.57987 13.2724 6.57987ZM13.2724 6.12988C13.1299 6.12988 12.9874 6.17938 12.8719 6.27988L5.99165 12.2767C5.73365 12.5017 5.70365 12.8962 5.92565 13.1572C6.04714 13.3012 6.21964 13.3747 6.39213 13.3747C6.53313 13.3747 6.67563 13.3252 6.79112 13.2247L13.0264 7.79183C13.0969 7.73033 13.1854 7.70033 13.2724 7.70033C13.3594 7.70033 13.4479 7.73033 13.5184 7.79183L19.7537 13.2247C19.8692 13.3252 20.0117 13.3747 20.1527 13.3747C20.3252 13.3747 20.4977 13.3012 20.6192 13.1572C20.8397 12.8947 20.8097 12.5017 20.5532 12.2767L13.6714 6.27988C13.5574 6.18088 13.4149 6.12988 13.2724 6.12988Z"
        fill="#424242" />
    <path
        d="M14.2746 20.7363H7.77832V20.2114C7.77832 20.0314 7.92382 19.8859 8.10381 19.8859H13.9476C14.1276 19.8859 14.2731 20.0314 14.2731 20.2114V20.7363H14.2746Z"
        fill="url(#paint9_linear_169_12876)" />
    <path opacity="0.3"
        d="M13.9491 20.0359C14.0466 20.0359 14.1246 20.1154 14.1246 20.2114V20.5863H7.92828V20.2114C7.92828 20.1139 8.00778 20.0359 8.10378 20.0359H13.9491ZM13.9491 19.8859H8.10528C7.92528 19.8859 7.77979 20.0314 7.77979 20.2114V20.7363H14.2761V20.2114C14.2746 20.0314 14.1291 19.8859 13.9491 19.8859Z"
        fill="#263238" />
    <path opacity="0.2"
        d="M13.3769 20.2684C13.4368 20.2466 13.4772 20.2062 13.467 20.1782C13.4568 20.1502 13.3999 20.1451 13.34 20.1669C13.28 20.1887 13.2397 20.2291 13.2499 20.2572C13.2601 20.2852 13.317 20.2902 13.3769 20.2684Z"
        fill="#424242" />
    <path opacity="0.2"
        d="M10.7554 20.4903C10.7979 20.4613 10.8201 20.4201 10.8052 20.3982C10.7903 20.3763 10.7438 20.382 10.7013 20.411C10.6589 20.4399 10.6366 20.4811 10.6516 20.503C10.6665 20.5249 10.713 20.5192 10.7554 20.4903Z"
        fill="#424242" />
    <path opacity="0.08"
        d="M13.0068 20.4634C13.0855 20.4634 13.1492 20.4352 13.1492 20.4004C13.1492 20.3656 13.0855 20.3374 13.0068 20.3374C12.9281 20.3374 12.8643 20.3656 12.8643 20.4004C12.8643 20.4352 12.9281 20.4634 13.0068 20.4634Z"
        fill="#424242" />
    <path opacity="0.08"
        d="M11.7826 20.456C11.8613 20.456 11.9251 20.4277 11.9251 20.393C11.9251 20.3582 11.8613 20.33 11.7826 20.33C11.7039 20.33 11.6401 20.3582 11.6401 20.393C11.6401 20.4277 11.7039 20.456 11.7826 20.456Z"
        fill="#424242" />
    <path opacity="0.08"
        d="M12.077 20.2879C12.1308 20.2879 12.1745 20.2638 12.1745 20.2339C12.1745 20.2041 12.1308 20.1799 12.077 20.1799C12.0231 20.1799 11.9795 20.2041 11.9795 20.2339C11.9795 20.2638 12.0231 20.2879 12.077 20.2879Z"
        fill="#424242" />
    <path opacity="0.08"
        d="M10.4852 20.3315C10.5631 20.3315 10.6262 20.2972 10.6262 20.255C10.6262 20.2127 10.5631 20.1785 10.4852 20.1785C10.4074 20.1785 10.3442 20.2127 10.3442 20.255C10.3442 20.2972 10.4074 20.3315 10.4852 20.3315Z"
        fill="#424242" />
    <path opacity="0.08"
        d="M13.8558 20.2564C13.9096 20.2564 13.9533 20.237 13.9533 20.2129C13.9533 20.1889 13.9096 20.1694 13.8558 20.1694C13.802 20.1694 13.7583 20.1889 13.7583 20.2129C13.7583 20.237 13.802 20.2564 13.8558 20.2564Z"
        fill="#424242" />
    <path opacity="0.08"
        d="M11.2097 20.3149C11.2147 20.2763 11.1481 20.2359 11.061 20.2246C10.974 20.2133 10.8993 20.2355 10.8943 20.2741C10.8893 20.3127 10.9558 20.3531 11.0429 20.3644C11.13 20.3757 11.2047 20.3535 11.2097 20.3149Z"
        fill="#424242" />
    <path opacity="0.2"
        d="M13.7821 20.4167C13.7898 20.3785 13.7289 20.3341 13.646 20.3174C13.5632 20.3008 13.4898 20.3182 13.4821 20.3564C13.4745 20.3946 13.5354 20.439 13.6183 20.4557C13.7011 20.4723 13.7745 20.4548 13.7821 20.4167Z"
        fill="#424242" />
    <path opacity="0.2"
        d="M11.5309 20.2789C11.6386 20.2789 11.7259 20.25 11.7259 20.2144C11.7259 20.1788 11.6386 20.1499 11.5309 20.1499C11.4232 20.1499 11.3359 20.1788 11.3359 20.2144C11.3359 20.25 11.4232 20.2789 11.5309 20.2789Z"
        fill="#424242" />
    <path opacity="0.2"
        d="M12.8044 20.2419C12.8176 20.2189 12.7834 20.1746 12.728 20.1429C12.6726 20.1113 12.6171 20.1043 12.6039 20.1273C12.5907 20.1503 12.625 20.1946 12.6804 20.2263C12.7357 20.2579 12.7913 20.2649 12.8044 20.2419Z"
        fill="#424242" />
    <path opacity="0.2"
        d="M12.3772 20.449C12.4801 20.4073 12.5512 20.343 12.5359 20.3054C12.5207 20.2678 12.4249 20.2711 12.322 20.3128C12.2191 20.3545 12.1481 20.4188 12.1634 20.4564C12.1786 20.494 12.2744 20.4907 12.3772 20.449Z"
        fill="#424242" />
    <path opacity="0.2"
        d="M9.69087 20.3254C9.75081 20.3036 9.79115 20.2632 9.78095 20.2352C9.77076 20.2072 9.7139 20.2021 9.65395 20.224C9.59401 20.2458 9.55367 20.2861 9.56387 20.3142C9.57406 20.3422 9.63092 20.3472 9.69087 20.3254Z"
        fill="#424242" />
    <path opacity="0.08"
        d="M9.32169 20.5219C9.40039 20.5219 9.46419 20.4937 9.46419 20.4589C9.46419 20.4241 9.40039 20.3959 9.32169 20.3959C9.243 20.3959 9.1792 20.4241 9.1792 20.4589C9.1792 20.4937 9.243 20.5219 9.32169 20.5219Z"
        fill="#424242" />
    <path opacity="0.08"
        d="M8.39144 20.3464C8.44529 20.3464 8.48894 20.3222 8.48894 20.2924C8.48894 20.2626 8.44529 20.2384 8.39144 20.2384C8.3376 20.2384 8.29395 20.2626 8.29395 20.2924C8.29395 20.3222 8.3376 20.3464 8.39144 20.3464Z"
        fill="#424242" />
    <path opacity="0.2"
        d="M10.0971 20.476C10.1047 20.4378 10.0438 20.3934 9.96096 20.3768C9.87812 20.3601 9.80475 20.3776 9.79708 20.4157C9.78942 20.4539 9.85036 20.4984 9.9332 20.515C10.016 20.5316 10.0894 20.5142 10.0971 20.476Z"
        fill="#424242" />
    <path opacity="0.2"
        d="M9.11792 20.2988C9.13108 20.2758 9.09685 20.2315 9.04147 20.1998C8.98609 20.1681 8.93053 20.1611 8.91738 20.1842C8.90422 20.2072 8.93845 20.2515 8.99383 20.2832C9.04921 20.3148 9.10477 20.3218 9.11792 20.2988Z"
        fill="#424242" />
    <path opacity="0.2"
        d="M8.69121 20.5064C8.79409 20.4647 8.86513 20.4004 8.84988 20.3628C8.83463 20.3251 8.73887 20.3285 8.63599 20.3702C8.53311 20.4119 8.46207 20.4762 8.47732 20.5138C8.49257 20.5514 8.58833 20.5481 8.69121 20.5064Z"
        fill="#424242" />
    <path
        d="M15.3784 21.4968C15.2749 21.4968 15.2194 21.3873 15.1999 21.3408C15.1429 21.2028 15.1489 21.0003 15.2704 20.8788C15.3184 20.8308 15.3229 20.7498 15.2899 20.6914C15.2164 20.5609 15.1849 20.3974 15.2014 20.2309C15.2509 19.7239 15.6619 19.2889 16.1763 19.1959C16.2483 19.1824 16.3218 19.1764 16.3938 19.1764C16.4898 19.1764 16.5858 19.1884 16.6803 19.2109C16.6923 19.2139 16.7043 19.2154 16.7163 19.2154C16.7673 19.2154 16.8153 19.1899 16.8438 19.1449C17.0643 18.7894 17.4468 18.5764 17.8653 18.5764C18.3963 18.5764 18.8703 18.9319 19.0188 19.4404C19.0383 19.5049 19.0967 19.5484 19.1627 19.5484C19.1717 19.5484 19.1807 19.5469 19.1912 19.5454C19.2662 19.5319 19.3412 19.5244 19.4162 19.5244C19.5092 19.5244 19.6037 19.5364 19.6967 19.5589C20.1977 19.6804 20.5757 20.1229 20.6147 20.6329C20.6387 20.9523 20.5412 21.2568 20.3372 21.4983H15.3784V21.4968Z"
        fill="url(#paint10_radial_169_12876)" />
    <path
        d="M17.8651 18.7265C18.3301 18.7265 18.7441 19.037 18.8746 19.4825C18.9121 19.613 19.0321 19.6985 19.1626 19.6985C19.1806 19.6985 19.2001 19.697 19.2181 19.6925C19.2841 19.6805 19.3501 19.673 19.4146 19.673C19.4956 19.673 19.5781 19.6835 19.659 19.703C20.0985 19.8095 20.4285 20.1965 20.463 20.6419C20.4825 20.8984 20.412 21.1444 20.262 21.3469L15.3797 21.3484C15.3677 21.3424 15.3302 21.3004 15.3167 21.2179C15.3047 21.1459 15.3122 21.0469 15.3737 20.9854C15.4487 20.9119 15.5042 20.7709 15.4187 20.6179C15.3602 20.513 15.3347 20.381 15.3482 20.246C15.3917 19.805 15.7502 19.4255 16.2017 19.343C16.2647 19.331 16.3291 19.3265 16.3921 19.3265C16.4761 19.3265 16.5601 19.337 16.6426 19.3565C16.6666 19.3625 16.6906 19.3655 16.7146 19.3655C16.8166 19.3655 16.9141 19.313 16.9696 19.2245C17.1661 18.9125 17.4991 18.7265 17.8651 18.7265ZM17.8651 18.4265C17.3806 18.4265 16.9546 18.6815 16.7161 19.0655C16.6126 19.04 16.5046 19.0265 16.3936 19.0265C16.3141 19.0265 16.2332 19.034 16.1492 19.049C15.5702 19.154 15.1082 19.6325 15.0512 20.2175C15.0182 20.5609 15.1652 20.7724 15.1622 20.7754C14.8742 21.0634 15.0332 21.6499 15.3767 21.6499H20.403C20.6505 21.3844 20.793 21.0199 20.763 20.6224C20.7195 20.0435 20.295 19.553 19.731 19.415C19.623 19.3895 19.5181 19.3775 19.4161 19.3775C19.3291 19.3775 19.2451 19.3865 19.1626 19.4015C18.9991 18.8375 18.4801 18.4265 17.8651 18.4265Z"
        fill="#689F38" />
    <path d="M16.5362 19.9474C16.5362 19.9474 16.5242 19.5769 16.8212 19.1809" stroke="#689F38"
        stroke-width="0.299991" stroke-miterlimit="10" stroke-linecap="round"
        stroke-linejoin="round" />
    <path d="M19.1405 19.553C18.791 19.559 18.449 19.8335 18.3965 20.1695" stroke="#689F38"
        stroke-width="0.299991" stroke-miterlimit="10" stroke-linecap="round"
        stroke-linejoin="round" />
    <path d="M18.7821 20.3254C18.4747 20.1859 18.0607 20.2069 17.7427 20.3689" stroke="#689F38"
        stroke-width="0.299991" stroke-miterlimit="10" stroke-linecap="round"
        stroke-linejoin="round" />
    <path d="M2.76855 20.7289H20.768V21.9288H2.76855V20.7289Z" fill="#689F38" />
    <path opacity="0.2" d="M2.76855 21.4789H20.768V21.9289H2.76855V21.4789Z" fill="#424242" />
    <defs>
        <radialGradient id="paint0_radial_169_12876" cx="0" cy="0" r="1"
            gradientUnits="userSpaceOnUse"
            gradientTransform="translate(5.88071 8.22307) scale(7.41232 7.41233)">
            <stop stop-color="#8BC34A" />
            <stop offset="0.7888" stop-color="#558B2F" />
            <stop offset="1" stop-color="#558B2F" />
        </radialGradient>
        <radialGradient id="paint1_radial_169_12876" cx="0" cy="0" r="1"
            gradientUnits="userSpaceOnUse"
            gradientTransform="translate(4.4758 18.131) rotate(90) scale(3.05421 3.66322)">
            <stop stop-color="#9CCC65" />
            <stop offset="0.3004" stop-color="#96C660" />
            <stop offset="0.3827" stop-color="#93C35E" />
            <stop offset="0.4872" stop-color="#86B854" />
            <stop offset="0.8182" stop-color="#639739" />
            <stop offset="0.9952" stop-color="#558B2F" />
        </radialGradient>
        <radialGradient id="paint2_radial_169_12876" cx="0" cy="0" r="1"
            gradientUnits="userSpaceOnUse"
            gradientTransform="translate(13.2725 6.67562) scale(16.0375 16.0375)">
            <stop stop-color="#FFD54F" />
            <stop offset="0.179" stop-color="#FFD34B" />
            <stop offset="0.3526" stop-color="#FFCE3F" />
            <stop offset="0.524" stop-color="#FFC62C" />
            <stop offset="0.693" stop-color="#FFBA11" />
            <stop offset="0.7785" stop-color="#FFB300" />
            <stop offset="1" stop-color="#FFB300" />
        </radialGradient>
        <radialGradient id="paint3_radial_169_12876" cx="0" cy="0" r="1"
            gradientUnits="userSpaceOnUse"
            gradientTransform="translate(10.9454 13.0947) scale(6.55885)">
            <stop stop-color="#D32F2F" />
            <stop offset="0.4374" stop-color="#CA2929" />
            <stop offset="0.9957" stop-color="#B71C1C" />
        </radialGradient>
        <radialGradient id="paint4_radial_169_12876" cx="0" cy="0" r="1"
            gradientUnits="userSpaceOnUse"
            gradientTransform="translate(11.0078 13.4383) scale(5.88762)">
            <stop stop-color="#EF5350" />
            <stop offset="1" stop-color="#E53935" />
        </radialGradient>
        <radialGradient id="paint5_radial_169_12876" cx="0" cy="0" r="1"
            gradientUnits="userSpaceOnUse"
            gradientTransform="translate(10.962 13.9692) scale(5.19869)">
            <stop stop-color="#E53935" />
            <stop offset="0.4072" stop-color="#DC3431" />
            <stop offset="1" stop-color="#C62828" />
        </radialGradient>
        <radialGradient id="paint6_radial_169_12876" cx="0" cy="0" r="1"
            gradientUnits="userSpaceOnUse"
            gradientTransform="translate(10.962 13.9692) scale(5.19869 5.19869)">
            <stop stop-color="#E53935" />
            <stop offset="0.4072" stop-color="#DC3431" />
            <stop offset="1" stop-color="#C62828" />
        </radialGradient>
        <linearGradient id="paint7_linear_169_12876" x1="11.0268" y1="19.331" x2="11.0268"
            y2="20.147" gradientUnits="userSpaceOnUse">
            <stop offset="0.0042918" stop-color="#BDBDBD" />
            <stop offset="0.2153" stop-color="#B5B5B5" />
            <stop offset="0.5502" stop-color="#9E9E9E" />
            <stop offset="0.9652" stop-color="#787878" />
            <stop offset="1" stop-color="#757575" />
        </linearGradient>
        <radialGradient id="paint8_radial_169_12876" cx="0" cy="0" r="1"
            gradientUnits="userSpaceOnUse"
            gradientTransform="translate(13.2097 6.099) scale(8.44984)">
            <stop stop-color="#F44336" />
            <stop offset="0.34" stop-color="#EE3F35" />
            <stop offset="0.8027" stop-color="#DC3531" />
            <stop offset="0.9957" stop-color="#D32F2F" />
        </radialGradient>
        <linearGradient id="paint9_linear_169_12876" x1="11.0268" y1="19.9129" x2="11.0268"
            y2="20.7228" gradientUnits="userSpaceOnUse">
            <stop offset="0.0042918" stop-color="#BDBDBD" />
            <stop offset="0.3969" stop-color="#BABABA" />
            <stop offset="0.7025" stop-color="#B0B0B0" />
            <stop offset="0.9786" stop-color="#A0A0A0" />
            <stop offset="1" stop-color="#9E9E9E" />
        </linearGradient>
        <radialGradient id="paint10_radial_169_12876" cx="0" cy="0" r="1"
            gradientUnits="userSpaceOnUse"
            gradientTransform="translate(17.7859 18.7449) rotate(90) scale(3.74059 4.34544)">
            <stop stop-color="#9CCC65" />
            <stop offset="0.2538" stop-color="#96C760" />
            <stop offset="0.5994" stop-color="#84B851" />
            <stop offset="0.9952" stop-color="#689F38" />
        </radialGradient>
    </defs>
</svg>
