<svg width="24" height="25" viewBox="0 0 24 25" fill="none" xmlns="http://www.w3.org/2000/svg">
    <rect y="0.5" width="24" height="24" rx="12" fill="#D4FAE6" />
    <path
        d="M20.9061 19.7007L12.8316 11.6247C12.6186 11.4117 12.3366 11.2947 12.0366 11.2947C11.7366 11.2947 11.4531 11.4117 11.2416 11.6247C11.0286 11.8377 10.9116 12.1197 10.9116 12.4197C10.9116 12.7197 11.0286 13.0032 11.2416 13.2147L19.3161 21.2892C19.5291 21.5022 19.8111 21.6192 20.1111 21.6192C20.4111 21.6192 20.6946 21.5022 20.9061 21.2892C21.1191 21.0762 21.2361 20.7942 21.2361 20.4942C21.2361 20.1942 21.1191 19.9122 20.9061 19.7007Z"
        fill="url(#paint0_linear_169_13061)" />
    <path opacity="0.2"
        d="M12.0366 11.7461C12.2166 11.7461 12.3861 11.8166 12.5136 11.9441L20.5881 20.0186C20.7156 20.1461 20.7861 20.3156 20.7861 20.4956C20.7861 20.6756 20.7156 20.8451 20.5881 20.9726C20.4606 21.1001 20.2911 21.1706 20.1111 21.1706C19.9311 21.1706 19.7616 21.1001 19.6341 20.9726L11.5581 12.8981C11.4306 12.7706 11.3601 12.6011 11.3601 12.4211C11.3601 12.2411 11.4306 12.0716 11.5581 11.9441C11.6856 11.8166 11.8551 11.7461 12.0366 11.7461ZM12.0366 11.2961C11.7366 11.2961 11.4531 11.4131 11.2416 11.6261C11.0286 11.8391 10.9116 12.1211 10.9116 12.4211C10.9116 12.7211 11.0286 13.0046 11.2416 13.2161L19.3161 21.2906C19.5291 21.5036 19.8111 21.6206 20.1111 21.6206C20.4111 21.6206 20.6946 21.5036 20.9061 21.2906C21.1191 21.0776 21.2361 20.7956 21.2361 20.4956C21.2361 20.1956 21.1191 19.9121 20.9061 19.7006L12.8316 11.6246C12.6186 11.4131 12.3366 11.2961 12.0366 11.2961Z"
        fill="#434343" />
    <path
        d="M9.98633 17.1206C13.7143 17.1206 16.7363 14.0985 16.7363 10.3706C16.7363 6.64268 13.7143 3.62061 9.98633 3.62061C6.25841 3.62061 3.23633 6.64268 3.23633 10.3706C3.23633 14.0985 6.25841 17.1206 9.98633 17.1206Z"
        fill="url(#paint1_linear_169_13061)" />
    <path opacity="0.2"
        d="M9.98633 4.07061C13.4603 4.07061 16.2863 6.89661 16.2863 10.3706C16.2863 13.8446 13.4603 16.6706 9.98633 16.6706C6.51233 16.6706 3.68633 13.8446 3.68633 10.3706C3.68633 6.89661 6.51233 4.07061 9.98633 4.07061ZM9.98633 3.62061C6.25883 3.62061 3.23633 6.64311 3.23633 10.3706C3.23633 14.0981 6.25883 17.1206 9.98633 17.1206C13.7138 17.1206 16.7363 14.0981 16.7363 10.3706C16.7363 6.64311 13.7138 3.62061 9.98633 3.62061Z"
        fill="#434343" />
    <path
        d="M14.4172 6.61162C13.0297 5.02012 9.3547 3.46762 6.2077 5.87212C5.0572 6.75112 4.0957 8.75962 4.0957 10.6541C4.0957 11.6486 4.3207 12.5891 4.7212 13.4306C4.4452 12.7346 4.2937 11.9816 4.2937 11.2001C4.2937 8.38312 6.5512 5.53762 9.5692 5.48212C13.1032 5.41762 14.6707 7.82812 14.6707 10.0811C14.6707 11.7506 13.9537 12.9686 12.8722 13.6541C12.2062 14.0771 11.4007 14.2961 10.5397 14.2931C8.6332 14.2856 7.1872 12.9641 7.1872 11.0186C7.1872 9.23962 8.6317 8.20462 10.0222 8.14612C11.8057 8.07112 12.4372 9.51262 12.4252 10.4366C12.4102 11.6006 11.3692 12.2711 10.4362 12.2006C9.6232 12.1391 9.1327 11.6186 9.1597 10.7546C9.1792 10.1726 9.7237 9.74062 10.2292 9.74062C10.7917 9.74062 11.1697 10.1366 11.2237 10.5101C11.2747 10.8551 11.1682 11.3921 10.4167 11.3921C10.1122 11.3921 9.8797 11.1386 9.8437 10.9451C9.8092 10.7531 9.8362 10.4021 10.1587 10.4021C10.1587 10.4021 9.8572 10.5746 10.0072 10.8626C10.0882 11.0171 10.2052 11.0516 10.3417 11.0546C10.5712 11.0351 10.7512 10.8581 10.7512 10.6391C10.7512 10.3496 10.4992 10.1141 10.1887 10.1141C9.8002 10.1141 9.4867 10.4081 9.4867 10.7696C9.4867 11.2226 9.8422 11.7671 10.4662 11.7926C11.1952 11.8226 11.9392 11.1386 11.8057 10.3196C11.6917 9.62212 11.3272 8.93062 10.1122 8.93062C9.1642 8.93062 8.0677 9.52312 8.0677 10.8851C8.0677 12.3761 9.2887 13.3256 10.4722 13.3256C12.2932 13.3256 13.7377 12.3701 13.7377 10.3031C13.7377 9.80812 13.6627 9.30412 13.4857 8.83612C13.1752 8.01412 12.1927 6.62962 9.7672 6.60112C7.4422 6.57262 5.5567 8.48662 5.5567 10.8116C5.5567 13.5491 7.7152 15.6041 10.6897 15.6176C14.2867 15.6356 18.0067 10.7261 14.4172 6.61162Z"
        fill="url(#paint2_linear_169_13061)" />
    <defs>
        <linearGradient id="paint0_linear_169_13061" x1="7.14437" y1="7.52908" x2="19.1601"
            y2="19.5447" gradientUnits="userSpaceOnUse">
            <stop stop-color="#FAA629" />
            <stop offset="1" stop-color="#FECC81" />
        </linearGradient>
        <linearGradient id="paint1_linear_169_13061" x1="3.23633" y1="10.3706" x2="16.7363"
            y2="10.3706" gradientUnits="userSpaceOnUse">
            <stop offset="0.2047" stop-color="#F48FB1" />
            <stop offset="0.8442" stop-color="#EC407A" />
        </linearGradient>
        <linearGradient id="paint2_linear_169_13061" x1="5.72245" y1="6.16807" x2="14.9362"
            y2="15.3818" gradientUnits="userSpaceOnUse">
            <stop stop-color="#FCE4EB" />
            <stop offset="1" stop-color="#F48FB1" />
        </linearGradient>
    </defs>
</svg>
