<svg width="24" height="25" viewBox="0 0 24 25" fill="none" xmlns="http://www.w3.org/2000/svg">
    <rect y="0.5" width="24" height="24" rx="12" fill="#D4FAE6" />
    <path
        d="M13.1505 20.4256C14.8577 22.1328 17.6524 22.1328 19.361 20.4256C21.0682 18.7185 21.0682 15.9237 19.361 14.2151L14.7466 9.60071L8.53613 15.8112L13.1505 20.4256Z"
        fill="url(#paint0_radial_169_13144)" />
    <path
        d="M14.7469 9.60067L10.1325 4.98629C8.42533 3.27915 5.6306 3.27915 3.92196 4.98629C2.21482 6.69343 2.21482 9.48816 3.92196 11.1968L8.53634 15.8112L14.7469 9.60067Z"
        fill="url(#paint1_radial_169_13144)" />
    <path opacity="0.2"
        d="M7.02771 4.15524C8.08379 4.15524 9.07388 4.56327 9.81494 5.30433L19.0437 14.5331C19.7848 15.2742 20.1928 16.2642 20.1928 17.3203C20.1928 18.3764 19.7848 19.3665 19.0437 20.1076C18.3026 20.8486 17.3126 21.2567 16.2565 21.2567C15.2004 21.2567 14.2103 20.8486 13.4692 20.1076L4.24047 10.8788C3.49941 10.1377 3.09138 9.14765 3.09138 8.09157C3.09138 7.03548 3.49941 6.0454 4.24047 5.30433C4.98153 4.56327 5.97162 4.15524 7.02771 4.15524ZM7.02771 3.7052C5.90261 3.7052 4.77602 4.13274 3.92245 4.98631C2.2153 6.69345 2.2153 9.48818 3.92245 11.1968L13.1512 20.4256C14.0048 21.2792 15.1314 21.7067 16.2565 21.7067C17.3816 21.7067 18.5082 21.2792 19.3617 20.4256C21.0689 18.7185 21.0689 15.9237 19.3617 14.2151L10.133 4.98631C9.27939 4.13274 8.1528 3.7052 7.02771 3.7052Z"
        fill="#424242" />
    <path opacity="0.2"
        d="M15.0654 9.91943L8.85481 16.1301L8.53659 15.8118L14.7472 9.60121L15.0654 9.91943Z"
        fill="#424242" />
    <defs>
        <radialGradient id="paint0_radial_169_13144" cx="0" cy="0" r="1"
            gradientUnits="userSpaceOnUse"
            gradientTransform="translate(12.2413 12.806) rotate(49.339) scale(10.2836 6.80085)">
            <stop stop-color="#EF5350" />
            <stop offset="0.6263" stop-color="#D83534" />
            <stop offset="0.7356" stop-color="#D32F2F" />
            <stop offset="1" stop-color="#D32F2F" />
        </radialGradient>
        <radialGradient id="paint1_radial_169_13144" cx="0" cy="0" r="1"
            gradientUnits="userSpaceOnUse"
            gradientTransform="translate(4.54084 5.45547) rotate(45) scale(10.0426 7.90373)">
            <stop stop-color="#FFEB3B" />
            <stop offset="0.349" stop-color="#FEE439" />
            <stop offset="0.6698" stop-color="#FDD835" />
            <stop offset="0.9954" stop-color="#FBC02D" />
        </radialGradient>
    </defs>
</svg>
