<svg width="24" height="24" viewBox="0 0 24 24" fill="none" xmlns="http://www.w3.org/2000/svg">
    <path
        d="M19.8198 14.2515C19.5227 13.7175 19.1636 13.2117 18.7894 12.7265C18.2403 12.012 17.6536 11.3256 17.1516 10.5791C16.6495 9.8345 16.2697 9.05039 15.6285 8.39789C15.0512 7.79241 14.3216 7.38437 13.5525 7.20761C13.2629 7.10419 12.9959 6.92932 12.8041 6.74316H12.9V5.99289H12.7571C12.759 5.80485 12.7797 5.74468 12.8229 5.6375C13.1144 4.80073 13.3814 3.97148 13.6729 3.13471C13.7406 2.93163 13.8064 2.74171 13.9418 2.58376C14.0978 2.38068 14.3442 2.23965 14.5228 2.03657C14.7014 1.83349 14.7691 1.49126 14.5454 1.31075C14.1655 1.24305 13.7631 1.2863 13.404 1.44613C13.5149 1.24305 13.3814 0.970396 13.1802 0.857574C12.979 0.744751 12.7327 0.744751 12.5089 0.744751C11.9711 0.744751 11.4127 0.767316 10.8767 0.767316C10.6304 0.767316 10.339 0.78988 10.1829 0.970396C10.0926 1.06065 10.0719 1.17348 9.98168 1.26374C9.73535 1.53451 9.31039 1.44425 8.95311 1.37656C8.59584 1.30886 8.12575 1.35399 8.01292 1.71503C7.99036 1.85041 8.01292 1.96324 8.03549 2.09862C8.32695 3.27386 8.85721 4.58449 9.57176 5.55476C9.68646 5.74468 9.69586 5.80297 9.76544 5.99101H9.70339V6.65666C9.70339 6.7582 9.2991 6.93496 9.22389 6.97633C8.33823 7.45959 7.53531 8.26439 6.82641 8.97141C6.07613 9.71792 5.39168 10.5284 4.77867 11.3915C3.76703 12.8149 2.69521 14.4866 2.57675 16.2673C2.51282 17.2131 2.71966 18.2041 3.19915 19.0258C3.7501 19.9697 4.60568 20.7595 5.44433 21.4496C6.2811 22.1378 7.25889 22.6587 8.29874 22.9652C8.31002 22.969 8.31943 22.9708 8.33071 22.9746C10.5496 23.6233 13.1031 23.2247 15.2298 22.4048C16.6627 21.852 17.9319 21.0134 19.0357 19.9472C19.5961 19.4056 20.0793 18.7701 20.3463 18.0386C20.8127 16.743 20.4704 15.4192 19.8198 14.2515Z"
        fill="url(#paint0_linear_169_12731)" />
    <path opacity="0.2"
        d="M12.5089 1.30886C12.6255 1.30886 12.7646 1.30886 12.8511 1.33143C12.8154 1.5063 12.8624 1.69246 12.9884 1.82785C13.0975 1.94631 13.2498 2.01025 13.404 2.01025C13.4811 2.01025 13.5582 1.9952 13.6315 1.96136C13.7011 1.93127 13.7744 1.90683 13.8477 1.88802C13.733 1.98204 13.6089 2.0911 13.5018 2.22837C13.3118 2.45778 13.2197 2.70411 13.1388 2.94856C12.9922 3.36976 12.8493 3.79473 12.712 4.20653C12.5766 4.61081 12.4356 5.03014 12.2927 5.44006C12.2269 5.60741 12.1949 5.73528 12.193 5.98537C12.1911 6.1264 12.2419 6.26366 12.3359 6.36708V6.42538C12.3152 6.45734 12.2964 6.49119 12.2814 6.5288C12.1949 6.74128 12.2457 6.98385 12.4093 7.14556C12.6706 7.40129 13.0091 7.6119 13.3626 7.73788C13.3833 7.7454 13.4059 7.75104 13.4265 7.75669C14.1072 7.91276 14.7278 8.26815 15.2261 8.79089C15.6303 9.2027 15.9274 9.68783 16.2433 10.1993C16.3825 10.4268 16.5273 10.66 16.6834 10.8932C17.0425 11.4253 17.4411 11.9292 17.8266 12.4144C17.9977 12.6287 18.1726 12.8506 18.3418 13.0706C18.7706 13.6291 19.0846 14.0917 19.3272 14.5261C20.006 15.7464 20.1696 16.8634 19.8123 17.8468C19.6017 18.4241 19.2087 18.9957 18.6408 19.5429C17.5615 20.5846 16.3449 21.3706 15.023 21.8802C13.5732 22.4387 12.0839 22.7358 10.7169 22.7358C9.91963 22.7358 9.16936 22.6342 8.48678 22.4349L8.45669 22.4255C7.4977 22.1435 6.5782 21.6565 5.79972 21.0152C5.04945 20.3985 4.2108 19.6444 3.68429 18.7437C3.27437 18.0405 3.08069 17.1755 3.13898 16.3068C3.24428 14.7235 4.2108 13.1665 5.23748 11.7186C5.83168 10.8838 6.49922 10.094 7.22317 9.37193L7.23821 9.35689C7.91703 8.67995 8.6861 7.91276 9.49278 7.47275C9.50218 7.46711 9.51723 7.45959 9.53603 7.45206C9.86134 7.29223 10.2675 7.09291 10.2675 6.65854V6.2505C10.339 6.11135 10.3502 5.94776 10.2957 5.79921C10.2844 5.76536 10.2731 5.73716 10.2637 5.71083C10.2111 5.5604 10.1716 5.45886 10.0531 5.26518C10.0437 5.25014 10.0343 5.23698 10.0249 5.22381C9.41757 4.40021 8.89482 3.22121 8.58644 1.98768L8.58456 1.98016C8.5808 1.95948 8.57704 1.94067 8.57516 1.92375C8.60148 1.91999 8.63345 1.91623 8.67294 1.91623C8.72747 1.91623 8.78764 1.92187 8.84593 1.93315L8.8779 1.93879C9.06218 1.97452 9.2709 2.01401 9.48902 2.01401C9.8651 2.01401 10.1678 1.89366 10.3897 1.65485C10.4837 1.55707 10.5383 1.45741 10.574 1.3916C10.5796 1.3822 10.5853 1.37092 10.5909 1.36152C10.6191 1.35211 10.6925 1.33331 10.8749 1.33331C11.1494 1.33331 11.4315 1.32767 11.7022 1.32203C11.9711 1.31451 12.2457 1.30886 12.5089 1.30886ZM12.5089 0.744751C11.9711 0.744751 11.4127 0.767316 10.8767 0.767316C10.6304 0.767316 10.339 0.78988 10.1829 0.970396C10.0926 1.06065 10.0719 1.17348 9.98168 1.26374C9.85382 1.40476 9.67894 1.44801 9.4909 1.44801C9.31415 1.44801 9.12611 1.41041 8.95311 1.37656C8.86474 1.35964 8.77072 1.35023 8.6767 1.35023C8.38712 1.35023 8.09942 1.44237 8.01481 1.71503C7.99224 1.85041 8.0148 1.96324 8.03737 2.09862C8.32883 3.27386 8.8591 4.58449 9.57364 5.55476C9.68834 5.74468 9.69774 5.80297 9.76732 5.99101H9.70339V6.65666C9.70339 6.7582 9.2991 6.93496 9.22389 6.97633C8.33823 7.45959 7.53531 8.26439 6.82641 8.97141C6.07613 9.71792 5.39168 10.5284 4.77867 11.3915C3.76703 12.8149 2.69521 14.4884 2.57675 16.2673C2.51282 17.2131 2.71966 18.2041 3.19915 19.0258C3.7501 19.9697 4.60568 20.7595 5.44433 21.4496C6.2811 22.1378 7.25889 22.6587 8.29874 22.9652C8.31002 22.969 8.31943 22.9708 8.33071 22.9746C9.0979 23.1984 9.90459 23.298 10.7207 23.298C12.2645 23.298 13.8383 22.9426 15.2298 22.4048C16.6627 21.852 17.9319 21.0134 19.0357 19.9472C19.5961 19.4056 20.0793 18.7701 20.3463 18.0386C20.8183 16.7411 20.4742 15.4174 19.8236 14.2496C19.5265 13.7156 19.1673 13.2098 18.7931 12.7246C18.2441 12.0101 17.6574 11.3238 17.1553 10.5773C16.6533 9.83262 16.2734 9.04851 15.6322 8.39601C15.0549 7.79053 14.3254 7.38249 13.5563 7.20573C13.2667 7.10231 12.9997 6.92744 12.8079 6.74128H12.9V5.99101H12.7571C12.759 5.80297 12.7797 5.7428 12.8229 5.63562C13.1144 4.79885 13.3814 3.9696 13.6729 3.13283C13.7406 2.92975 13.8064 2.73983 13.9418 2.58188C14.0978 2.3788 14.3442 2.23777 14.5228 2.03469C14.7014 1.83161 14.7691 1.48938 14.5454 1.30886C14.4307 1.28818 14.3141 1.27878 14.1956 1.27878C13.9248 1.27878 13.6541 1.33331 13.404 1.44425C13.5149 1.24117 13.3814 0.968516 13.1802 0.855693C12.979 0.744751 12.7327 0.744751 12.5089 0.744751Z"
        fill="#424242" />
    <path opacity="0.2"
        d="M11.8033 6.5965C11.2317 5.88948 11.6435 5.80487 11.4385 5.17682C11.258 4.62211 10.9026 4.07868 10.3667 3.55969C10.3535 3.61798 10.4344 3.86431 10.4419 3.92261C10.5773 4.49236 10.3366 5.04895 10.581 5.62623C10.7785 6.09068 11.226 6.32197 11.7337 6.76574C11.76 6.70933 11.8559 6.66232 11.8033 6.5965Z"
        fill="#212121" />
    <path
        d="M12.9494 6.88982H9.62301C9.34471 6.88982 9.11719 6.66229 9.11719 6.384C9.11719 6.1057 9.34471 5.87817 9.62301 5.87817H12.9494C13.2277 5.87817 13.4552 6.1057 13.4552 6.384C13.4552 6.66229 13.2277 6.88982 12.9494 6.88982Z"
        fill="#6D4C41" />
    <path opacity="0.2"
        d="M12.9494 6.06621C13.1243 6.06621 13.2672 6.20912 13.2672 6.384C13.2672 6.55887 13.1243 6.70178 12.9494 6.70178H9.62301C9.44813 6.70178 9.30523 6.55887 9.30523 6.384C9.30523 6.20912 9.44813 6.06621 9.62301 6.06621H12.9494ZM12.9494 5.87817H9.62301C9.34471 5.87817 9.11719 6.1057 9.11719 6.384C9.11719 6.66229 9.34471 6.88982 9.62301 6.88982H12.9494C13.2277 6.88982 13.4552 6.66229 13.4552 6.384C13.4552 6.1057 13.2277 5.87817 12.9494 5.87817Z"
        fill="#424242" />
    <path
        d="M14.1018 17.4331C14.1018 17.0044 14.0191 16.6321 13.8574 16.3124C13.6938 15.9927 13.4399 15.7144 13.0939 15.4737C12.7818 15.2575 12.3587 15.0563 11.8266 14.872L11.8623 11.8108C12.1161 11.8879 12.3286 12.0345 12.5035 12.2508C12.7348 12.5385 12.8683 12.8713 12.9003 13.332C12.9097 13.4636 13.0131 13.5275 13.1466 13.5275H13.7709C13.91 13.5275 14.0247 13.4542 14.0172 13.3169C13.9815 12.608 13.8386 12.0608 13.5001 11.634C13.1221 11.1583 12.5242 10.895 11.9601 10.8029V9.75174C11.9601 9.59567 11.7476 9.39259 11.5915 9.39259H11.2512C11.097 9.39071 11.0199 9.59567 11.0199 9.74986V10.5208L10.9917 10.7954C10.3185 10.8762 9.77694 11.1282 9.39334 11.5513C9.00787 11.9744 8.80855 12.5178 8.80855 13.1797C8.80855 13.8303 9.00222 14.3662 9.39522 14.7874C9.73181 15.1484 10.2376 15.4493 10.9146 15.6937L10.8788 18.834C10.5272 18.7757 10.2433 18.6347 10.0252 18.4128C9.76942 18.1514 9.62463 17.7828 9.59078 17.3278C9.58138 17.2018 9.47232 17.0984 9.34633 17.0984H8.71641C8.57726 17.0984 8.46256 17.2225 8.47008 17.3616C8.51144 18.0423 8.70324 18.5952 9.08308 19.0107C9.50993 19.4771 10.0778 19.7478 10.83 19.8174V20.6937C10.83 20.8497 10.9917 21.0491 11.1477 21.0491H11.4824C11.6385 21.0491 11.772 20.8497 11.772 20.6937V20.075V19.8193C12.5091 19.7422 13.0808 19.4959 13.4907 19.0803C13.8987 18.6647 14.1018 18.1157 14.1018 17.4331ZM10.326 14.1462C10.0571 13.9017 9.92361 13.5727 9.92361 13.1609C9.92361 12.7152 10.0515 12.3692 10.3053 12.121C10.4727 11.9574 10.6908 11.8484 10.9578 11.792L10.9259 14.5279C10.6739 14.4076 10.4727 14.2797 10.326 14.1462ZM12.5279 18.4861C12.3286 18.6535 12.0785 18.7663 11.7795 18.8227L11.8134 16.0228C12.1537 16.1732 12.4151 16.335 12.5919 16.5061C12.8514 16.7599 12.983 17.0739 12.983 17.4444C12.9811 17.8844 12.8307 18.2323 12.5279 18.4861Z"
        fill="url(#paint1_linear_169_12731)" />
    <defs>
        <linearGradient id="paint0_linear_169_12731" x1="11.5627" y1="23.2999" x2="11.5627"
            y2="0.74445" gradientUnits="userSpaceOnUse">
            <stop stop-color="#FFB74D" />
            <stop offset="1" stop-color="#FFE0B2" />
        </linearGradient>
        <linearGradient id="paint1_linear_169_12731" x1="11.2863" y1="21.0491" x2="11.2863"
            y2="9.39071" gradientUnits="userSpaceOnUse">
            <stop offset="0.0023318" stop-color="#5D4037" />
            <stop offset="1" stop-color="#795548" />
        </linearGradient>
    </defs>
</svg>
