<svg width="22"
    height="21"
    viewBox="0 0 22 21"
    fill="none"
    xmlns="http://www.w3.org/2000/svg">
    <path
        d="M6.39583 4C5.8 4 5.3125 4.4875 5.3125 5.08333V15.9167C5.3125 16.5125 5.8 17 6.39583 17H15.6042C16.2 17 16.6875 16.5125 16.6875 15.9167V5.08333C16.6875 4.4875 16.2 4 15.6042 4H6.39583ZM8.5625 15.375H6.9375V13.75H8.5625V15.375ZM8.5625 13.2083H6.9375V11.5833H8.5625V13.2083ZM8.5625 11.0417H6.9375V9.41667H8.5625V11.0417ZM10.7292 15.375H9.10417V13.75H10.7292V15.375ZM10.7292 13.2083H9.10417V11.5833H10.7292V13.2083ZM10.7292 11.0417H9.10417V9.41667H10.7292V11.0417ZM12.8958 15.375H11.2708V13.75H12.8958V15.375ZM12.8958 13.2083H11.2708V11.5833H12.8958V13.2083ZM12.8958 11.0417H11.2708V9.41667H12.8958V11.0417ZM15.0625 15.375H13.4375V11.5833H15.0625V15.375ZM15.0625 11.0417H13.4375V9.41667H15.0625V11.0417ZM15.0625 8.33333H6.9375V5.625H15.0625V8.33333Z"
        fill="#2AE881" />
</svg>
