<svg fill="none" height="24" viewBox="0 0 24 24" width="24" xmlns="http://www.w3.org/2000/svg">
    <path
        d="M22 11.11V5C22 4.46957 21.7893 3.96086 21.4142 3.58579C21.0391 3.21071 20.5304 3 20 3H15.82C15.4 1.84 14.3 1 13 1C11.7 1 10.6 1.84 10.18 3H6C4.9 3 4 3.9 4 5V19C4 19.5304 4.21071 20.0391 4.58579 20.4142C4.96086 20.7893 5.46957 21 6 21H12.11C13.37 22.24 15.09 23 17 23C20.87 23 24 19.87 24 16C24 14.09 23.24 12.37 22 11.11ZM13 3C13.55 3 14 3.45 14 4C14 4.55 13.55 5 13 5C12.45 5 12 4.55 12 4C12 3.45 12.45 3 13 3ZM6 19V5H8V7H18V5H20V9.68C19.09 9.25 18.08 9 17 9H8V11H12.1C11.5 11.57 11.04 12.25 10.68 13H8V15H10.08C10.03 15.33 10 15.66 10 16C10 17.08 10.25 18.09 10.68 19H6ZM17 21C14.24 21 12 18.76 12 16C12 13.24 14.24 11 17 11C19.76 11 22 13.24 22 16C22 18.76 19.76 21 17 21ZM17.5 16.25L20.36 17.94L19.61 19.16L16 17V12H17.5V16.25Z"
        fill="#000000" />
</svg>
