<svg width="24" height="24" viewBox="0 0 24 24" fill="none" xmlns="http://www.w3.org/2000/svg">
    <path
        d="M15 19C12.5 19 10.32 17.58 9.24 15.5H15L16 13.5H8.58C8.53 13.17 8.5 12.84 8.5 12.5C8.5 12.16 8.53 11.83 8.58 11.5H15L16 9.5H9.24C9.78757 8.44511 10.6143 7.56085 11.63 6.94365C12.6458 6.32646 13.8115 6.00004 15 6C16.61 6 18.09 6.59 19.23 7.57L21 5.8C19.3532 4.31788 17.2156 3.49848 15 3.5C11.08 3.5 7.76 6 6.5 9.5H3L2 11.5H6.06C6 11.83 6 12.16 6 12.5C6 12.84 6 13.17 6.06 13.5H3L2 15.5H6.5C7.76 19 11.08 21.5 15 21.5C17.31 21.5 19.41 20.63 21 19.2L19.22 17.43C18.09 18.41 16.62 19 15 19Z"
        fill="#000000" />
</svg>
