<svg width="24" height="25" viewBox="0 0 24 25" fill="none" xmlns="http://www.w3.org/2000/svg">
    <path
        d="M16.3496 12.5068C16.3496 12.6507 16.3219 12.7835 16.2666 12.9053C16.2113 13.027 16.1255 13.146 16.0093 13.2622L11.0371 18.1846C10.8545 18.3672 10.6331 18.4585 10.373 18.4585C10.1019 18.4585 9.87223 18.3672 9.68408 18.1846C9.49593 17.9964 9.40186 17.7695 9.40186 17.5039C9.40186 17.2383 9.50423 17.0031 9.70898 16.7983L14.0669 12.5068L9.70898 8.21533C9.50423 8.01058 9.40186 7.77539 9.40186 7.50977C9.40186 7.24414 9.49593 7.02002 9.68408 6.8374C9.87223 6.64925 10.1019 6.55518 10.373 6.55518C10.6331 6.55518 10.8545 6.64648 11.0371 6.8291L16.0093 11.7515C16.2362 11.9673 16.3496 12.2191 16.3496 12.5068Z"
        fill="#3C3C43" fill-opacity="0.3" />
</svg>
