<svg width="21" height="21" viewBox="0 0 21 21" fill="none" xmlns="http://www.w3.org/2000/svg">
    <path
        d="M11 3L17.4773 6.75V14.25L11 18L4.52271 14.25V6.75L11 3ZM11 12.5455C11.5425 12.5455 12.0627 12.33 12.4463 11.9464C12.8299 11.5628 13.0454 11.0425 13.0454 10.5C13.0454 9.95751 12.8299 9.43724 12.4463 9.05365C12.0627 8.67005 11.5425 8.45455 11 8.45455C10.4575 8.45455 9.93722 8.67005 9.55362 9.05365C9.17003 9.43724 8.95452 9.95751 8.95452 10.5C8.95452 11.0425 9.17003 11.5628 9.55362 11.9464C9.93722 12.33 10.4575 12.5455 11 12.5455Z"
        fill="#000000" />
</svg>
